<svg xmlns="http://www.w3.org/2000/svg" id="Camada_2" viewBox="0 0 601.14 90.3"><defs><style>      .cls-1 {        fill: #fff;      }      .cls-2 {        fill: #ffe000;      }      .cls-3 {        isolation: isolate;      }    </style></defs><g id="Camada_1-2" data-name="Camada_1"><g><g class="cls-3"><path class="cls-2" d="M381.58,10.18V2.34h-45.87v80.04h45.54v-7.83h-37.54v-22.44h37.54v-7.84h-37.54V10.18h37.87Z"></path></g><g class="cls-3"><path class="cls-2" d="M443.78,2.34v61.35L390.51,2.34h-1.74v80.04h8.27V21.77l52.83,60.61h1.8V2.34h-7.89Z"></path></g><g class="cls-3"><path class="cls-2" d="M504.56,76.83c-10.2,0-18.64-3.27-25.33-9.79-6.69-6.53-10.04-14.68-10.04-24.43,0-6.46,1.5-12.27,4.49-17.44,2.99-5.17,7.21-9.29,12.65-12.35,5.44-3.07,11.35-4.6,17.74-4.6,5.84,0,11.2,1.17,16.07,3.51,4.88,2.34,9.06,5.77,12.55,10.31l6.31-4.84c-3.85-5.34-8.78-9.48-14.8-12.44-6.02-2.95-12.77-4.43-20.24-4.43-12.37,0-22.66,4-30.88,12-8.21,8-12.32,17.85-12.32,29.57s3.39,20.64,10.17,28.51c8.09,9.32,19.14,13.98,33.14,13.98,7.36,0,14.02-1.39,19.99-4.16,5.97-2.78,10.95-6.7,14.94-11.78l-6.31-4.79c-7.55,8.78-16.92,13.17-28.13,13.17Z"></path></g><g class="cls-3"><path class="cls-2" d="M591.89,2.34l-20.15,33.01-20.48-33.01h-9.21l25.85,41.79v38.25h7.89v-38.25l25.35-41.79h-9.25Z"></path></g><g class="cls-3"><path class="cls-2" d="M239.61,52.49l-1.22-2.62-1.59-3.42-.79-1.69L216.58,3.08h-1.96l-37.82,80.04h8.93l8.26-17.47,4.2-8.86,3.66-7.73.4-.86h.01l13.31-28.11,6.26,13.29,5.36,11.38.02.05.13.29,1.52,3.21.35.75h-.03l.7,1.53.88,1.9,4.4,9.49h-.01l10.11,21.14h8.64l-14.29-30.63Z"></path></g><g><path class="cls-1" d="M50.18,38.85c-5.21-5.39-11.92-8.12-19.94-8.12-2.18,0-4.57.29-7.12.85l3.25-17.69h29.53V2.07H16.66l-8.59,46.13,3.43-1.46c6.61-2.82,12.27-4.25,16.81-4.25,5.27,0,9.52,1.55,12.62,4.61,3.09,3.04,4.65,7.1,4.65,12.07,0,5.58-1.77,10.28-5.26,13.96-3.46,3.66-7.65,5.52-12.46,5.52-2.43,0-4.8-.55-7.03-1.62-2.22-1.07-4.01-2.47-5.31-4.18-1.31-1.71-2.27-4.03-2.85-6.89l-.32-1.6H0l.31,2.27c.95,6.93,3.93,12.67,8.86,17.06,4.94,4.39,11.06,6.62,18.2,6.62,5.91,0,11.21-1.3,15.75-3.86,4.57-2.57,8.24-6.32,10.91-11.14,2.65-4.79,3.99-10.12,3.99-15.83,0-8.32-2.64-15.27-7.84-20.63Z"></path><path class="cls-1" d="M98.57,57.62h0c6.51-7.06,10.97-12.77,13.27-16.96,2.38-4.35,3.58-9.09,3.58-14.07,0-7.12-2.54-13.4-7.56-18.64-5.04-5.27-11.7-7.95-19.8-7.95s-15.09,2.83-20.66,8.4c-5.54,5.55-8.47,12.72-8.71,21.31l-.06,2.06h11.79l.14-1.85c.44-5.81,2.25-10.35,5.37-13.48,3.12-3.14,6.94-4.66,11.68-4.66,4.42,0,8.21,1.49,11.26,4.44,3.06,2.98,4.55,6.41,4.55,10.5,0,3.27-.87,6.43-2.6,9.41-1.84,3.17-5.94,8.15-12.17,14.83l-34.5,37.29h62.38v-11.94h-35.32l17.35-18.68Z"></path><path class="cls-1" d="M169.88,20.06h0c-2.58-6.31-6.15-11.11-10.6-14.27-4.48-3.18-9.54-4.79-15.05-4.79s-10.43,1.6-14.82,4.77c-4.38,3.15-7.81,7.83-10.21,13.92-2.36,6-3.56,14.58-3.56,25.5s1.21,19.41,3.61,25.48c2.43,6.13,5.86,10.82,10.21,13.93,4.37,3.12,9.34,4.71,14.77,4.71s10.6-1.63,15.1-4.84c4.5-3.21,8.07-8.01,10.6-14.27,2.52-6.19,3.79-14.61,3.79-25.01s-1.29-18.88-3.84-25.12ZM164.01,45.32c0,8.07-1.01,15.06-3.01,20.8h0c-1.57,4.6-3.88,8.08-6.87,10.35-2.97,2.25-6.2,3.4-9.61,3.4s-6.63-1.17-9.68-3.49c-3.07-2.33-5.43-5.81-7-10.34-1.62-4.62-2.43-11.59-2.43-20.72s.83-16.15,2.46-20.77c1.6-4.54,3.94-8.02,6.97-10.33,3.01-2.29,6.26-3.46,9.67-3.46s6.56,1.16,9.59,3.46c3.05,2.31,5.48,6.05,7.23,11.1,1.78,5.13,2.69,11.86,2.69,19.99Z"></path></g><path class="cls-2" d="M328.28,37.94l-3.45.51v-.03l-19.79,2.98-17.07,2.57,6.86-12.61-6.8,1.42-32.64,6.81c.4-4.58,1.77-8.96,4.1-13.15,2.82-5.06,6.8-9.06,11.94-12.01,5.14-2.96,10.53-4.43,16.21-4.43,4.56,0,9.24,1.09,14.04,3.26.54.25,1.09.51,1.62.77,3.82,1.96,7.4,4.57,10.71,7.86l3.66-2.94.06-.05,2.08-1.67s0,0,0,0c-1.2-1.53-2.51-2.96-3.92-4.3-7.27-6.91-17.11-11.15-27.93-11.15-16.44,0-30.59,9.78-36.96,23.83h0s-.02.03-.02.05c-.12.26-.23.52-.34.78-.03.07-.06.14-.09.2-.09.22-.18.43-.27.65-.05.12-.1.24-.14.36-.06.15-.12.31-.18.46-.07.19-.14.38-.21.56-.03.08-.06.16-.08.23-1.41,4.02-2.18,8.22-2.29,12.61l-11.45,2.76-6.76,1.63-7.43,1.8-14.8,3.57-.22.46,16.09-1.57,7.92-.77,19.37-1.88v-.02s10.74-1,10.74-1l2.27-.2,15.66-1.41-4.13,7.11-1.61,2.77,43.66-3.14c-.95,7.08-3.99,12.85-9.15,17.3-5.15,4.45-11.45,6.68-18.89,6.68-6.14,0-11.78-1.5-16.93-4.47-3.62-2.08-6.69-4.73-9.22-7.92-1.06-1.34-2.02-2.79-2.88-4.33-1.28-2.27-2.28-4.6-3-6.99-.02-.09-.05-.18-.08-.27h-.09l-.33.27-1.68,1.35h0s-3.74,3-3.74,3l-.64.52s.03.07.04.11h0s-.03.02-.03.02c.22.58.46,1.15.71,1.72,5.85,13.33,18.65,22.91,33.82,24.14.05,0,.11,0,.16.01,1.05.09,2.11.13,3.18.13.05,0,.1,0,.15,0,9.49-.03,18.21-3.32,25.11-8.82,9.33-7.43,15.3-18.88,15.3-31.74,0-1.49-.08-2.97-.24-4.42Z"></path></g></g></svg>