<svg xmlns="http://www.w3.org/2000/svg" id="Camada_2" viewBox="0 0 389 45"><defs><style> .cls-1 { fill: #fff; } .cls-2 { fill: #e34747; } </style></defs><g id="Camada_1-2" data-name="Camada_1"><path id="Caminho_7763-2" class="cls-2" d="M35.35,10.82h317.66v14.56l-14.52,8.84H20.83v-14.56l14.52-8.84"></path><path id="Caminho_7862" class="cls-2" d="M17,0h372v28l-17,17H0v-28L17,0"></path><g><path class="cls-1" d="M22.53,17.5h-4.25l-.73,1.48h-2.37l4-7.74h2.47l4,7.74h-2.4l-.73-1.48ZM21.74,15.9l-1.34-2.74-1.35,2.74h2.69Z"></path><path class="cls-1" d="M26.96,11.24l2.56,5.58,2.54-5.58h2.41l-3.79,7.74h-2.37l-3.78-7.74h2.43Z"></path><path class="cls-1" d="M35.33,18.98v-7.74h2.26v7.74h-2.26Z"></path><path class="cls-1" d="M47.94,16.56c0,1.59-1.47,2.68-4.28,2.68-1.99,0-3.66-.54-4.88-1.52l1.18-1.39c.92.77,2.19,1.21,3.74,1.21,1.33,0,1.99-.24,1.99-.75s-.62-.66-2.21-.8c-2.3-.2-4.39-.71-4.39-2.43s1.79-2.57,4.25-2.57c1.66,0,3.19.4,4.25,1.15l-1.14,1.41c-.86-.61-1.9-.85-3.11-.86-.91,0-2,.14-2,.7,0,.52.9.59,2.28.7,2.53.21,4.33.71,4.33,2.49Z"></path><path class="cls-1" d="M48.78,15.11c0-2.62,1.98-4.13,5.04-4.13s5.06,1.5,5.06,4.13-1.99,4.13-5.06,4.13-5.04-1.5-5.04-4.13ZM56.57,15.11c0-1.46-1.05-2.29-2.75-2.29s-2.75.83-2.75,2.29,1.05,2.29,2.75,2.29,2.75-.83,2.75-2.29Z"></path><path class="cls-1" d="M59.84,13.81c0-.62.52-1.11,1.27-1.11s1.26.49,1.26,1.11-.52,1.11-1.26,1.11-1.27-.48-1.27-1.11ZM59.84,18.03c0-.62.52-1.11,1.27-1.11s1.26.49,1.26,1.11-.52,1.09-1.26,1.09-1.27-.46-1.27-1.09Z"></path><path class="cls-1" d="M66.23,15.11c0-2.62,1.98-4.13,5.04-4.13s5.06,1.5,5.06,4.13-1.99,4.13-5.06,4.13-5.04-1.5-5.04-4.13ZM74.02,15.11c0-1.46-1.05-2.29-2.75-2.29s-2.75.83-2.75,2.29,1.05,2.29,2.75,2.29,2.75-.83,2.75-2.29Z"></path><path class="cls-1" d="M81.72,11.24l2.56,5.58,2.54-5.58h2.41l-3.79,7.74h-2.37l-3.78-7.74h2.43Z"></path><path class="cls-1" d="M95.45,17.5h-4.25l-.73,1.48h-2.37l4-7.74h2.47l4,7.74h-2.4l-.73-1.48ZM94.66,15.9l-1.34-2.74-1.35,2.74h2.69Z"></path><path class="cls-1" d="M106.9,17.17v1.81h-7.47v-7.74h2.26v5.93h5.21Z"></path><path class="cls-1" d="M107.3,15.11c0-2.62,1.98-4.13,5.04-4.13s5.06,1.5,5.06,4.13-1.99,4.13-5.06,4.13-5.04-1.5-5.04-4.13ZM115.1,15.11c0-1.46-1.05-2.29-2.75-2.29s-2.75.83-2.75,2.29,1.05,2.29,2.75,2.29,2.75-.83,2.75-2.29Z"></path><path class="cls-1" d="M125.35,18.98l-2.05-2.45h-2.28v2.45h-2.25v-7.74h5.43c1.98,0,3.52.87,3.52,2.64,0,1.29-.82,2.11-2.04,2.47l2.28,2.63h-2.62ZM124.04,14.9c.81,0,1.39-.22,1.39-.97s-.59-.97-1.39-.97h-3.03v1.95h3.03Z"></path><path class="cls-1" d="M140.96,13.95c0,1.8-1.4,2.71-3.52,2.71h-3.12v2.32h-2.26v-7.74h5.38c2.11,0,3.52.93,3.52,2.71ZM138.67,13.99c0-.79-.58-1.04-1.42-1.04h-2.93v2.07h2.93c.84,0,1.42-.25,1.42-1.03Z"></path><path class="cls-1" d="M141.71,15.11c0-2.62,1.98-4.13,5.04-4.13s5.06,1.5,5.06,4.13-1.99,4.13-5.06,4.13-5.04-1.5-5.04-4.13ZM149.5,15.11c0-1.46-1.05-2.29-2.75-2.29s-2.75.83-2.75,2.29,1.05,2.29,2.75,2.29,2.75-.83,2.75-2.29Z"></path><path class="cls-1" d="M162.37,15.11c0,2.43-1.89,3.87-4.87,3.87h-4.33v-7.74h4.33c2.98,0,4.87,1.44,4.87,3.87ZM160.07,15.11c0-1.37-1.08-2.08-2.74-2.08h-1.89v4.16h1.89c1.66,0,2.74-.71,2.74-2.08Z"></path><path class="cls-1" d="M172.01,17.26v1.73h-8.26v-7.74h8.14v1.73h-5.92v1.27h4.88v1.65h-4.88v1.37h6.04Z"></path><path class="cls-1" d="M179.95,18.98l-2.05-2.45h-2.28v2.45h-2.25v-7.74h5.43c1.98,0,3.52.87,3.52,2.64,0,1.29-.82,2.11-2.04,2.47l2.28,2.63h-2.62ZM178.64,14.9c.81,0,1.39-.22,1.39-.97s-.59-.97-1.39-.97h-3.03v1.95h3.03Z"></path><path class="cls-1" d="M190.05,17.5h-4.25l-.73,1.48h-2.37l4-7.74h2.47l4,7.74h-2.4l-.73-1.48ZM189.26,15.9l-1.34-2.74-1.35,2.74h2.69ZM188.27,10.35h-1.6l1.52-1.86h2.71l-2.62,1.86Z"></path><path class="cls-1" d="M203.13,18.98l-2.05-2.45h-2.28v2.45h-2.25v-7.74h5.43c1.98,0,3.52.87,3.52,2.64,0,1.29-.82,2.11-2.04,2.47l2.28,2.63h-2.62ZM201.82,14.9c.81,0,1.39-.22,1.39-.97s-.59-.97-1.39-.97h-3.03v1.95h3.03Z"></path><path class="cls-1" d="M215.22,17.26v1.73h-8.26v-7.74h8.14v1.73h-5.92v1.27h4.88v1.65h-4.88v1.37h6.04Z"></path><path class="cls-1" d="M224.53,13.04h-3.22v5.94h-2.26v-5.94h-3.2v-1.8h8.67v1.8Z"></path><path class="cls-1" d="M224.92,15.11c0-2.62,1.98-4.13,5.04-4.13s5.06,1.5,5.06,4.13-1.99,4.13-5.06,4.13-5.04-1.5-5.04-4.13ZM232.72,15.11c0-1.46-1.05-2.29-2.75-2.29s-2.75.83-2.75,2.29,1.05,2.29,2.75,2.29,2.75-.83,2.75-2.29Z"></path><path class="cls-1" d="M242.97,18.98l-2.05-2.45h-2.28v2.45h-2.25v-7.74h5.43c1.98,0,3.52.87,3.52,2.64,0,1.29-.82,2.11-2.04,2.47l2.28,2.63h-2.62ZM241.66,14.9c.81,0,1.39-.22,1.39-.97s-.59-.97-1.39-.97h-3.03v1.95h3.03Z"></path><path class="cls-1" d="M255.96,11.24v7.74h-1.98l-5-5.09v5.09h-2.18v-7.74h2.39l4.59,4.74v-4.74h2.18Z"></path><path class="cls-1" d="M264.17,17.5h-4.25l-.73,1.48h-2.37l4-7.74h2.47l4,7.74h-2.4l-.73-1.48ZM263.38,15.9l-1.34-2.74-1.35,2.74h2.69Z"></path><path class="cls-1" d="M274.73,18.98l-2.05-2.45h-2.28v2.45h-2.25v-7.74h5.43c1.98,0,3.52.87,3.52,2.64,0,1.29-.82,2.11-2.04,2.47l2.28,2.63h-2.62ZM273.42,14.9c.81,0,1.39-.22,1.39-.97s-.59-.97-1.39-.97h-3.03v1.95h3.03Z"></path><path class="cls-1" d="M287.47,17.5h-4.25l-.73,1.48h-2.37l4-7.74h2.47l4,7.74h-2.4l-.73-1.48ZM286.69,15.9l-1.34-2.74-1.35,2.74h2.69Z"></path><path class="cls-1" d="M290.53,15.11c0-2.62,1.98-4.13,5.04-4.13s5.06,1.5,5.06,4.13-1.99,4.13-5.06,4.13-5.04-1.5-5.04-4.13ZM298.33,15.11c0-1.46-1.05-2.29-2.75-2.29s-2.75.83-2.75,2.29,1.05,2.29,2.75,2.29,2.75-.83,2.75-2.29Z"></path><path class="cls-1" d="M304.45,15.11c0-2.62,1.98-4.13,5.04-4.13s5.06,1.5,5.06,4.13-1.99,4.13-5.06,4.13-5.04-1.5-5.04-4.13ZM312.25,15.11c0-1.46-1.05-2.29-2.75-2.29s-2.75.83-2.75,2.29,1.05,2.29,2.75,2.29,2.75-.83,2.75-2.29Z"></path><path class="cls-1" d="M322.5,18.98l-2.05-2.45h-2.28v2.45h-2.25v-7.74h5.43c1.98,0,3.52.87,3.52,2.64,0,1.29-.82,2.11-2.04,2.47l2.28,2.63h-2.62ZM321.19,14.9c.81,0,1.39-.22,1.39-.97s-.59-.97-1.39-.97h-3.03v1.95h3.03Z"></path><path class="cls-1" d="M326.33,18.98v-7.74h2.26v7.74h-2.26Z"></path><path class="cls-1" d="M339.54,17.52c-.83,1.03-2.36,1.71-4.43,1.71-3.17,0-5.14-1.5-5.14-4.13s1.97-4.13,5.14-4.13c1.91,0,3.3.67,4.1,1.43l-1.65,1.22c-.66-.6-1.36-.86-2.4-.86-1.88,0-2.91.83-2.91,2.34s1.06,2.36,2.94,2.36c.95,0,1.7-.19,2.25-.69v-.7h-2.57v-1.58h4.66v3.02Z"></path><path class="cls-1" d="M340.98,18.98v-7.74h2.26v7.74h-2.26Z"></path><path class="cls-1" d="M354.22,11.24v7.74h-1.98l-5-5.09v5.09h-2.18v-7.74h2.39l4.59,4.74v-4.74h2.18Z"></path><path class="cls-1" d="M362.43,17.5h-4.25l-.73,1.48h-2.37l4-7.74h2.47l4,7.74h-2.4l-.73-1.48ZM361.65,15.9l-1.34-2.74-1.35,2.74h2.69Z"></path><path class="cls-1" d="M373.88,17.17v1.81h-7.47v-7.74h2.26v5.93h5.21Z"></path><path class="cls-1" d="M37.35,33.18h-4.25l-.73,1.48h-2.37l4-7.74h2.47l4,7.74h-2.4l-.73-1.48ZM36.56,31.57l-1.34-2.74-1.35,2.74h2.69Z"></path><path class="cls-1" d="M52.05,33.9l.96,1.03-1.07.91-1.18-1.26c-.67.22-1.44.34-2.3.34-3.06,0-5.04-1.5-5.04-4.13s1.98-4.13,5.04-4.13,5.06,1.5,5.06,4.13c0,1.35-.53,2.4-1.46,3.11ZM49.29,33l-.94-1.01,1.08-.92,1.18,1.27c.39-.38.6-.91.6-1.56,0-1.46-1.05-2.29-2.75-2.29s-2.75.83-2.75,2.29,1.05,2.29,2.75,2.29c.3,0,.58-.02.83-.08Z"></path><path class="cls-1" d="M63.75,26.92v4.09c0,2.36-1.6,3.91-4.49,3.91s-4.5-1.55-4.5-3.91v-4.09h2.26v3.92c0,1.35.75,2.22,2.25,2.22s2.23-.87,2.23-2.22v-3.92h2.26Z"></path><path class="cls-1" d="M71.35,33.18h-4.25l-.73,1.48h-2.37l4-7.74h2.47l4,7.74h-2.4l-.73-1.48ZM70.57,31.57l-1.34-2.74-1.35,2.74h2.69Z"></path><path class="cls-1" d="M82.81,32.85v1.81h-7.47v-7.74h2.26v5.93h5.21Z"></path><path class="cls-1" d="M91.85,33.9l.96,1.03-1.07.91-1.18-1.26c-.67.22-1.44.34-2.3.34-3.06,0-5.04-1.5-5.04-4.13s1.98-4.13,5.04-4.13,5.06,1.5,5.06,4.13c0,1.35-.53,2.4-1.46,3.11ZM89.08,33l-.94-1.01,1.08-.92,1.18,1.27c.39-.38.6-.91.6-1.56,0-1.46-1.05-2.29-2.75-2.29s-2.75.83-2.75,2.29,1.05,2.29,2.75,2.29c.3,0,.58-.02.83-.08Z"></path><path class="cls-1" d="M103.54,26.92v4.09c0,2.36-1.6,3.91-4.49,3.91s-4.5-1.55-4.5-3.91v-4.09h2.26v3.92c0,1.35.75,2.22,2.25,2.22s2.23-.87,2.23-2.22v-3.92h2.26Z"></path><path class="cls-1" d="M113.49,32.93v1.73h-8.26v-7.74h8.14v1.73h-5.92v1.27h4.88v1.65h-4.88v1.37h6.04Z"></path><path class="cls-1" d="M121.43,34.66l-2.05-2.45h-2.28v2.45h-2.25v-7.74h5.43c1.98,0,3.52.87,3.52,2.64,0,1.29-.82,2.11-2.04,2.47l2.28,2.63h-2.62ZM120.12,30.58c.81,0,1.39-.22,1.39-.97s-.59-.97-1.39-.97h-3.03v1.95h3.03Z"></path><path class="cls-1" d="M138.85,26.92v7.74h-2.25v-4.95l-3.09,3.78h-.11l-3.09-3.78v4.95h-2.18v-7.74h2.47l2.91,3.72,2.93-3.72h2.4Z"></path><path class="cls-1" d="M140.23,30.79c0-2.62,1.98-4.13,5.04-4.13s5.06,1.5,5.06,4.13-1.99,4.13-5.06,4.13-5.04-1.5-5.04-4.13ZM148.03,30.79c0-1.46-1.05-2.29-2.75-2.29s-2.75.83-2.75,2.29,1.05,2.29,2.75,2.29,2.75-.83,2.75-2.29Z"></path><path class="cls-1" d="M162.41,26.92v7.74h-2.25v-4.95l-3.09,3.78h-.11l-3.09-3.78v4.95h-2.18v-7.74h2.47l2.91,3.72,2.93-3.72h2.4Z"></path><path class="cls-1" d="M172.49,32.93v1.73h-8.26v-7.74h8.14v1.73h-5.92v1.27h4.88v1.65h-4.88v1.37h6.04Z"></path><path class="cls-1" d="M183.02,26.92v7.74h-1.98l-5-5.09v5.09h-2.18v-7.74h2.39l4.59,4.74v-4.74h2.18Z"></path><path class="cls-1" d="M192.78,28.72h-3.22v5.94h-2.26v-5.94h-3.2v-1.8h8.67v1.8Z"></path><path class="cls-1" d="M193.17,30.79c0-2.62,1.98-4.13,5.04-4.13s5.06,1.5,5.06,4.13-1.99,4.13-5.06,4.13-5.04-1.5-5.04-4.13ZM200.97,30.79c0-1.46-1.05-2.29-2.75-2.29s-2.75.83-2.75,2.29,1.05,2.29,2.75,2.29,2.75-.83,2.75-2.29Z"></path><path class="cls-1" d="M215.79,32.93v1.73h-8.26v-7.74h8.14v1.73h-5.92v1.27h4.88v1.65h-4.88v1.37h6.04Z"></path><path class="cls-1" d="M228.57,32.24c0,1.59-1.47,2.68-4.28,2.68-1.99,0-3.66-.54-4.88-1.52l1.18-1.39c.92.77,2.19,1.21,3.74,1.21,1.33,0,1.99-.24,1.99-.75s-.62-.66-2.21-.8c-2.3-.2-4.39-.71-4.39-2.43s1.79-2.57,4.25-2.57c1.66,0,3.19.4,4.25,1.15l-1.14,1.41c-.86-.61-1.9-.85-3.11-.86-.91,0-2,.14-2,.7,0,.52.9.59,2.28.7,2.53.21,4.33.71,4.33,2.49Z"></path><path class="cls-1" d="M238.11,32.93v1.73h-8.26v-7.74h8.14v1.73h-5.92v1.27h4.88v1.65h-4.88v1.37h6.04Z"></path><path class="cls-1" d="M250.19,26.92v7.74h-2.25v-4.95l-3.09,3.78h-.11l-3.09-3.78v4.95h-2.18v-7.74h2.47l2.91,3.72,2.93-3.72h2.4Z"></path><path class="cls-1" d="M260.92,33.18h-4.25l-.73,1.48h-2.37l4-7.74h2.47l4,7.74h-2.4l-.73-1.48ZM260.13,31.57l-1.34-2.74-1.35,2.74h2.69Z"></path><path class="cls-1" d="M265.36,26.92l2.56,5.58,2.54-5.58h2.41l-3.79,7.74h-2.37l-3.78-7.74h2.43Z"></path><path class="cls-1" d="M273.73,34.66v-7.74h2.26v7.74h-2.26Z"></path><path class="cls-1" d="M286.34,32.24c0,1.59-1.47,2.68-4.28,2.68-1.99,0-3.66-.54-4.88-1.52l1.18-1.39c.92.77,2.19,1.21,3.74,1.21,1.33,0,1.99-.24,1.99-.75s-.62-.66-2.21-.8c-2.3-.2-4.39-.71-4.39-2.43s1.79-2.57,4.25-2.57c1.66,0,3.19.4,4.25,1.15l-1.14,1.41c-.86-.61-1.9-.85-3.11-.86-.91,0-2,.14-2,.7,0,.52.9.59,2.28.7,2.53.21,4.33.71,4.33,2.49Z"></path><path class="cls-1" d="M287.17,30.79c0-2.62,1.98-4.13,5.04-4.13s5.06,1.5,5.06,4.13-1.99,4.13-5.06,4.13-5.04-1.5-5.04-4.13ZM294.97,30.79c0-1.46-1.05-2.29-2.75-2.29s-2.75.83-2.75,2.29,1.05,2.29,2.75,2.29,2.75-.83,2.75-2.29Z"></path><path class="cls-1" d="M310.43,29.63c0,1.8-1.41,2.71-3.52,2.71h-3.12v2.32h-2.26v-7.74h5.38c2.11,0,3.52.93,3.52,2.71ZM308.14,29.67c0-.79-.58-1.04-1.42-1.04h-2.93v2.07h2.93c.84,0,1.42-.25,1.42-1.03Z"></path><path class="cls-1" d="M318.19,34.66l-2.05-2.45h-2.28v2.45h-2.25v-7.74h5.43c1.98,0,3.52.87,3.52,2.64,0,1.29-.82,2.11-2.04,2.47l2.28,2.63h-2.62ZM316.88,30.58c.81,0,1.39-.22,1.39-.97s-.59-.97-1.39-.97h-3.03v1.95h3.03Z"></path><path class="cls-1" d="M330.28,32.93v1.73h-8.26v-7.74h8.14v1.73h-5.92v1.27h4.88v1.65h-4.88v1.37h6.04ZM326.37,26.03h-1.6l1.52-1.86h2.71l-2.62,1.86Z"></path><path class="cls-1" d="M333.13,26.92l2.56,5.58,2.54-5.58h2.41l-3.79,7.74h-2.37l-3.78-7.74h2.43Z"></path><path class="cls-1" d="M341.49,34.66v-7.74h2.26v7.74h-2.26Z"></path><path class="cls-1" d="M345.13,30.79c0-2.62,1.98-4.13,5.04-4.13s5.06,1.5,5.06,4.13-1.99,4.13-5.06,4.13-5.04-1.5-5.04-4.13ZM352.93,30.79c0-1.46-1.05-2.29-2.75-2.29s-2.75.83-2.75,2.29,1.05,2.29,2.75,2.29,2.75-.83,2.75-2.29Z"></path><path class="cls-1" d="M355.92,33.71c0-.62.52-1.11,1.27-1.11s1.26.49,1.26,1.11-.52,1.09-1.26,1.09-1.27-.46-1.27-1.09Z"></path></g></g></svg>