<svg xmlns="http://www.w3.org/2000/svg" xmlns:xlink="http://www.w3.org/1999/xlink" id="Camada_2" viewBox="0 0 460 82"><defs><style> .cls-1 { fill: url(#Gradiente_sem_nome_2); } .cls-2 { fill: url(#Gradiente_sem_nome); } .cls-3 { fill: #2c220c; } .cls-4 { fill: #e8d5b0; } </style><linearGradient id="Gradiente_sem_nome" data-name="Gradiente sem nome" x1="222.36" y1="35.39" x2="318.36" y2="149.93" gradientUnits="userSpaceOnUse"><stop offset="0" stop-color="#826834"></stop><stop offset=".51" stop-color="#a7936d"></stop><stop offset="1" stop-color="#7f642a"></stop></linearGradient><linearGradient id="Gradiente_sem_nome_2" data-name="Gradiente sem nome 2" x1="153.33" y1="-26.21" x2="291.48" y2="88.59" gradientUnits="userSpaceOnUse"><stop offset="0" stop-color="#a5874a"></stop><stop offset=".51" stop-color="#dec9a0"></stop><stop offset="1" stop-color="#a5874a"></stop></linearGradient></defs><g id="Camada_1-2" data-name="Camada_1"><g id="Grupo_43907"><g id="Grupo_43906"><g id="Grupo_43899"><rect id="Ret&#xE2;ngulo_15675" class="cls-2" x="0" y="7" width="460" height="75" rx="7" ry="7"></rect><rect id="Ret&#xE2;ngulo_15676" class="cls-1" x="0" width="460" height="75" rx="7" ry="7"></rect></g><path id="Caminho_7875" class="cls-4" d="M45.97,48.18c-.8.02-1.6-.09-2.38-.3-.64-.18-1.19-.58-1.57-1.12-.42-.72-.61-1.55-.56-2.38v-2.28h3.31v2.36c-.02.3.08.59.29.8.23.19.53.28.83.27h1.98v2.66h-1.9ZM43.21,44.38c-1.14.03-2.27-.2-3.31-.65-.89-.4-1.69-.99-2.33-1.72-.6-.68-1.07-1.47-1.39-2.33-.29-.78-.45-1.6-.46-2.43v-.42c0-.88.16-1.75.48-2.57.32-.85.8-1.63,1.43-2.29.66-.7,1.46-1.26,2.35-1.63,1.03-.42,2.13-.63,3.24-.61,1.1-.02,2.2.19,3.22.61.89.38,1.69.93,2.35,1.63.62.66,1.11,1.44,1.43,2.29.32.82.48,1.69.48,2.57v.42c0,.83-.17,1.66-.46,2.43-.32.85-.79,1.64-1.4,2.33-.65.73-1.44,1.32-2.34,1.72-1.03.46-2.16.68-3.29.65ZM43.21,41.07c.56.01,1.11-.09,1.63-.3.47-.19.89-.49,1.24-.86.34-.37.61-.81.78-1.28.18-.51.27-1.05.27-1.59,0-.56-.09-1.12-.27-1.65-.17-.47-.44-.91-.79-1.27-.35-.36-.77-.64-1.24-.82-.52-.2-1.06-.29-1.62-.28-.56,0-1.11.09-1.63.28-.47.18-.89.46-1.24.82-.35.36-.61.8-.78,1.27-.18.53-.27,1.09-.27,1.65,0,.54.08,1.08.27,1.59.17.48.44.91.78,1.28.35.37.77.66,1.24.86.52.21,1.07.31,1.63.3ZM60.58,44.38c-1.17.04-2.33-.22-3.38-.74-.9-.47-1.63-1.2-2.1-2.1-.5-1-.75-2.1-.72-3.22v-8.19h3.53v8.27c-.01.49.1.98.31,1.43.2.39.51.72.9.93.45.23.94.34,1.44.32.5.02,1-.1,1.44-.32.39-.21.7-.53.89-.92.21-.45.31-.94.3-1.43v-8.26h3.53v8.19c.03,1.12-.22,2.22-.71,3.22-.47.9-1.2,1.63-2.09,2.1-1.04.52-2.2.78-3.36.74ZM71.12,44v-13.87h3.42v13.87h-3.42ZM74.16,44v-2.89h5.85v2.89h-5.85ZM74.16,38.39v-2.89h5.45v2.89h-5.45ZM74.16,33.02v-2.89h5.74v2.89h-5.74ZM84.19,44v-13.98h3.53v13.98h-3.53ZM92.55,44l-3.9-5.89h3.84l4.13,5.89h-4.07ZM86.84,39.74v-2.72h3.32c.38,0,.75-.08,1.08-.25.3-.16.55-.4.71-.7.18-.33.27-.69.26-1.06,0-.38-.08-.75-.26-1.08-.17-.3-.41-.54-.71-.7-.33-.17-.71-.26-1.08-.25h-3.32v-2.96h3.12c1.06-.02,2.12.16,3.12.54.82.32,1.52.87,2.01,1.6.49.78.73,1.69.7,2.61v.3c.03.92-.21,1.82-.71,2.59-.5.71-1.2,1.25-2.01,1.56-.99.37-2.05.55-3.11.52h-3.11ZM106.73,44.38c-1.14.03-2.27-.2-3.31-.66-.89-.4-1.69-.99-2.34-1.72-.6-.69-1.07-1.48-1.39-2.33-.29-.78-.45-1.6-.46-2.43v-.42c0-.88.16-1.75.48-2.57.32-.85.8-1.63,1.43-2.29.66-.7,1.46-1.26,2.35-1.63,1.03-.42,2.13-.63,3.24-.61,1.1-.02,2.2.19,3.22.61.89.37,1.69.93,2.35,1.63.62.66,1.11,1.44,1.43,2.29.32.82.48,1.69.48,2.57v.42c0,.83-.17,1.66-.46,2.43-.32.86-.8,1.65-1.4,2.33-.65.74-1.44,1.33-2.34,1.73-1.03.46-2.16.68-3.29.65ZM106.73,41.07c.56.01,1.11-.09,1.63-.3.47-.19.89-.49,1.24-.86.34-.37.61-.81.78-1.28.18-.51.27-1.05.27-1.59,0-.56-.09-1.12-.28-1.65-.17-.47-.44-.91-.79-1.27-.35-.36-.77-.64-1.24-.82-.52-.2-1.06-.29-1.61-.28-.56,0-1.11.09-1.63.28-.47.18-.89.46-1.24.82-.35.36-.61.8-.78,1.27-.18.53-.27,1.09-.27,1.65,0,.54.08,1.08.27,1.59.17.48.44.91.78,1.28.35.37.77.66,1.24.86.52.21,1.07.31,1.63.3ZM130.57,44.38c-1.16.03-2.3-.19-3.36-.66-.88-.4-1.67-.98-2.3-1.72-.58-.68-1.02-1.47-1.31-2.32-.27-.79-.41-1.62-.42-2.45v-.42c0-.87.15-1.73.44-2.56.29-.84.74-1.62,1.32-2.29.61-.7,1.37-1.26,2.21-1.64.98-.43,2.04-.64,3.12-.62,1.17-.02,2.33.21,3.39.7.94.44,1.76,1.11,2.37,1.95.6.85.96,1.84,1.04,2.88h-3.53c-.08-.42-.27-.81-.55-1.13-.31-.35-.7-.62-1.13-.8-.5-.2-1.04-.3-1.59-.3-.52-.01-1.03.09-1.51.3-.43.19-.8.48-1.1.84-.31.38-.54.82-.67,1.28-.16.52-.23,1.07-.23,1.61,0,.55.07,1.1.24,1.63.15.48.4.93.72,1.31.33.38.74.68,1.2.86.53.21,1.09.31,1.65.3.71.02,1.41-.15,2.03-.49.54-.29.96-.75,1.2-1.31l-.27,2.09v-3.02h3.23v2.85c-.58,1-1.45,1.8-2.48,2.31-1.16.56-2.43.83-3.71.81ZM130.19,39.1v-2.47h7.71v2.47h-7.71ZM140.09,44l4.45-13.87h5.66l4.6,13.87h-3.65l-3.57-11.4,1.01.38h-2.51l1.03-.38-3.48,11.4h-3.53ZM143.72,40.79l1.06-2.89h5.26l1.06,2.89h-7.39ZM158.18,44v-13.98h3.53v13.98h-3.53ZM166.54,44l-3.89-5.89h3.84l4.12,5.89h-4.07ZM160.82,39.74v-2.72h3.32c.38,0,.75-.08,1.08-.25.3-.16.55-.4.71-.7.18-.33.27-.69.26-1.07.01-.38-.08-.75-.26-1.08-.17-.3-.41-.54-.71-.7-.33-.17-.71-.26-1.08-.25h-3.32v-2.96h3.12c1.06-.02,2.12.16,3.12.54.82.32,1.52.87,2.01,1.6.49.78.73,1.69.7,2.61v.3c.03.92-.21,1.82-.71,2.59-.5.71-1.2,1.25-2.01,1.56-.99.37-2.05.55-3.11.52h-3.12ZM172.81,44l4.45-13.87h5.66l4.6,13.87h-3.65l-3.57-11.4,1.01.38h-2.51l1.03-.38-3.48,11.4h-3.53ZM176.44,40.79l1.06-2.89h5.26l1.06,2.89h-7.39ZM190.9,44v-13.87h5.8l4.61,11.06h.67l-.38.34v-11.4h3.3v13.87h-5.83l-4.62-11.06h-.67l.38-.34v11.4h-3.26ZM212.31,44v-11.17h3.53v11.17h-3.53ZM208.51,33.21v-3.08h11.13v3.08h-11.13ZM223.29,44v-13.87h3.53v13.87h-3.53ZM231.5,44v-13.98h3.53v13.98h-3.53ZM239.86,44l-3.89-5.89h3.83l4.13,5.89h-4.07ZM234.14,39.74v-2.72h3.32c.38,0,.75-.08,1.08-.25.3-.16.55-.4.71-.7.18-.33.27-.69.26-1.06,0-.38-.08-.75-.26-1.08-.17-.3-.41-.54-.71-.7-.33-.17-.71-.26-1.08-.25h-3.32v-2.96h3.12c1.06-.02,2.12.16,3.12.54.82.32,1.52.87,2.01,1.6.49.78.73,1.69.7,2.61v.3c.03.92-.21,1.82-.71,2.59-.5.71-1.2,1.25-2.01,1.56-.99.37-2.05.55-3.11.52h-3.11ZM251.83,44l4.45-13.87h5.66l4.6,13.87h-3.65l-3.57-11.4,1.01.38h-2.51l1.03-.38-3.48,11.4h-3.53ZM255.46,40.79l1.06-2.89h5.26l1.06,2.89h-7.39ZM275.62,44v-13.87h4.9l2.85,7.32h.38l2.83-7.32h5v13.87h-3.5v-11.84l.55.04-3.57,9.01h-3.21l-3.59-9.01.59-.04v11.84h-3.23ZM296.25,44v-13.87h3.53v13.87h-3.53ZM304.46,44v-13.87h5.8l4.61,11.06h.67l-.38.34v-11.4h3.31v13.87h-5.83l-4.62-11.06h-.67l.38-.34v11.4h-3.27ZM331.92,44v-13.87h3.53v13.87h-3.53ZM323.1,44v-13.87h3.53v13.87h-3.53ZM326.03,38.55v-3.08h6.5v3.08h-6.5ZM338.83,44l4.45-13.87h5.66l4.6,13.87h-3.65l-3.57-11.4,1.01.38h-2.51l1.03-.38-3.48,11.4h-3.53ZM342.46,40.79l1.06-2.89h5.26l1.06,2.89h-7.39ZM365.62,44l-4.03-13.87h3.65l3.02,11.38-.66-.32h1.82l-.68.32,2.81-11.38h3.53l-3.76,13.87h-5.7ZM376.45,44l4.45-13.87h5.66l4.6,13.87h-3.65l-3.57-11.4,1.01.38h-2.51l1.03-.38-3.48,11.4h-3.53ZM380.08,40.79l1.06-2.89h5.26l1.06,2.89h-7.39ZM400.62,44.38c-1.16.03-2.3-.19-3.36-.66-.88-.4-1.67-.98-2.3-1.72-.58-.68-1.03-1.47-1.31-2.32-.27-.79-.41-1.62-.42-2.45v-.42c0-.87.15-1.73.44-2.56.29-.84.74-1.62,1.32-2.29.61-.7,1.37-1.26,2.21-1.64.98-.43,2.04-.64,3.12-.62,1.17-.02,2.33.22,3.39.7.94.44,1.76,1.11,2.37,1.95.6.85.96,1.84,1.04,2.88h-3.53c-.08-.42-.27-.81-.55-1.13-.31-.35-.7-.62-1.13-.8-.5-.2-1.04-.3-1.59-.3-.52-.01-1.03.09-1.51.3-.43.19-.8.48-1.1.84-.31.38-.54.82-.67,1.28-.16.52-.23,1.07-.23,1.61,0,.55.08,1.1.25,1.62.15.48.4.93.72,1.31.33.38.74.68,1.2.86.53.21,1.09.31,1.65.3.71.02,1.41-.15,2.03-.49.54-.29.96-.75,1.2-1.31l-.27,2.09v-3.01h3.23v2.85c-.58,1-1.44,1.8-2.48,2.31-1.16.56-2.44.84-3.72.81ZM400.24,39.1v-2.47h7.71v2.47h-7.71ZM410.14,44l4.45-13.87h5.66l4.6,13.87h-3.65l-3.57-11.4,1.01.38h-2.51l1.03-.38-3.48,11.4h-3.53ZM413.77,40.79l1.06-2.89h5.27l1.06,2.89h-7.4Z"></path><path id="Caminho_7876" class="cls-3" d="M45.97,47c-.8.02-1.6-.09-2.38-.3-.64-.18-1.19-.58-1.57-1.12-.42-.72-.61-1.55-.56-2.38v-2.28h3.31v2.36c-.02.3.08.59.29.8.23.19.53.28.83.27h1.98v2.66h-1.9ZM43.21,43.2c-1.14.03-2.27-.2-3.31-.65-.89-.4-1.69-.99-2.33-1.72-.6-.68-1.07-1.47-1.39-2.33-.29-.78-.45-1.6-.46-2.43v-.42c0-.88.16-1.75.48-2.57.32-.85.8-1.63,1.43-2.29.66-.7,1.46-1.26,2.35-1.63,1.03-.42,2.13-.63,3.24-.61,1.1-.02,2.2.19,3.22.61.89.38,1.69.93,2.35,1.63.62.66,1.11,1.44,1.43,2.29.32.82.48,1.69.48,2.57v.42c0,.83-.17,1.66-.46,2.43-.32.85-.79,1.64-1.4,2.33-.65.73-1.44,1.32-2.34,1.72-1.03.46-2.16.68-3.29.65ZM43.21,39.89c.56.01,1.11-.09,1.63-.3.47-.19.89-.49,1.24-.86.34-.37.61-.81.78-1.28.18-.51.27-1.05.27-1.59,0-.56-.09-1.12-.27-1.65-.17-.47-.44-.91-.79-1.27-.35-.36-.77-.64-1.24-.82-.52-.2-1.06-.29-1.62-.28-.56,0-1.11.09-1.63.28-.47.18-.89.46-1.24.82-.35.36-.61.8-.78,1.27-.18.53-.27,1.09-.27,1.65,0,.54.08,1.08.27,1.59.17.48.44.91.78,1.28.35.37.77.66,1.24.86.52.21,1.07.31,1.63.3ZM60.58,43.2c-1.17.04-2.33-.22-3.38-.74-.9-.47-1.63-1.2-2.1-2.1-.5-1-.75-2.1-.72-3.22v-8.19h3.53v8.27c-.01.49.1.98.31,1.43.2.39.51.72.9.93.45.23.94.34,1.44.32.5.02,1-.1,1.44-.32.39-.21.7-.53.89-.92.21-.45.31-.94.3-1.43v-8.26h3.53v8.19c.03,1.12-.22,2.22-.71,3.22-.47.9-1.2,1.63-2.09,2.1-1.04.52-2.2.78-3.36.74ZM71.12,42.82v-13.87h3.42v13.87h-3.42ZM74.16,42.82v-2.89h5.85v2.89h-5.85ZM74.16,37.22v-2.89h5.45v2.89h-5.45ZM74.16,31.84v-2.89h5.74v2.89h-5.74ZM84.19,42.82v-13.98h3.53v13.98h-3.53ZM92.55,42.82l-3.9-5.89h3.84l4.13,5.89h-4.07ZM86.84,38.56v-2.72h3.32c.38,0,.75-.08,1.08-.25.3-.16.55-.4.71-.7.18-.33.27-.69.26-1.06,0-.38-.08-.75-.26-1.08-.17-.3-.41-.54-.71-.7-.33-.17-.71-.26-1.08-.25h-3.32v-2.96h3.12c1.06-.02,2.12.16,3.12.54.82.32,1.52.87,2.01,1.6.49.78.73,1.69.7,2.61v.3c.03.92-.21,1.82-.71,2.59-.5.71-1.2,1.25-2.01,1.56-.99.37-2.05.55-3.11.52h-3.11ZM106.73,43.2c-1.14.03-2.27-.2-3.31-.66-.89-.4-1.69-.99-2.34-1.72-.6-.69-1.07-1.48-1.39-2.33-.29-.78-.45-1.6-.46-2.43v-.42c0-.88.16-1.75.48-2.57.32-.85.8-1.63,1.43-2.29.66-.7,1.46-1.26,2.35-1.63,1.03-.42,2.13-.63,3.24-.61,1.1-.02,2.2.19,3.22.61.89.37,1.69.93,2.35,1.63.62.66,1.11,1.44,1.43,2.29.32.82.48,1.69.48,2.57v.42c0,.83-.17,1.66-.46,2.43-.32.86-.8,1.65-1.4,2.33-.65.74-1.44,1.33-2.34,1.73-1.03.46-2.16.68-3.29.65ZM106.73,39.89c.56.01,1.11-.09,1.63-.3.47-.19.89-.49,1.24-.86.34-.37.61-.81.78-1.28.18-.51.27-1.05.27-1.59,0-.56-.09-1.12-.28-1.65-.17-.47-.44-.91-.79-1.27-.35-.36-.77-.64-1.24-.82-.52-.2-1.06-.29-1.61-.28-.56,0-1.11.09-1.63.28-.47.18-.89.46-1.24.82-.35.36-.61.8-.78,1.27-.18.53-.27,1.09-.27,1.65,0,.54.08,1.08.27,1.59.17.48.44.91.78,1.28.35.37.77.66,1.24.86.52.21,1.07.31,1.63.3ZM130.57,43.2c-1.16.03-2.3-.19-3.36-.66-.88-.4-1.67-.98-2.3-1.72-.58-.68-1.02-1.47-1.31-2.32-.27-.79-.41-1.62-.42-2.45v-.42c0-.87.15-1.73.44-2.56.29-.84.74-1.62,1.32-2.29.61-.7,1.37-1.26,2.21-1.64.98-.43,2.04-.64,3.12-.62,1.17-.02,2.33.21,3.39.7.94.44,1.76,1.11,2.37,1.95.6.85.96,1.84,1.04,2.88h-3.53c-.08-.42-.27-.81-.55-1.13-.31-.35-.7-.62-1.13-.8-.5-.2-1.04-.3-1.59-.3-.52-.01-1.03.09-1.51.3-.43.19-.8.48-1.1.84-.31.38-.54.82-.67,1.28-.16.52-.23,1.07-.23,1.61,0,.55.07,1.1.24,1.63.15.48.4.93.72,1.31.33.38.74.68,1.2.86.53.21,1.09.31,1.65.3.71.02,1.41-.15,2.03-.49.54-.29.96-.75,1.2-1.31l-.27,2.09v-3.02h3.23v2.85c-.58,1-1.45,1.8-2.48,2.31-1.16.56-2.43.83-3.71.81ZM130.19,37.92v-2.47h7.71v2.47h-7.71ZM140.09,42.82l4.45-13.87h5.66l4.6,13.87h-3.65l-3.57-11.4,1.01.38h-2.51l1.03-.38-3.48,11.4h-3.53ZM143.72,39.61l1.06-2.89h5.26l1.06,2.89h-7.39ZM158.18,42.82v-13.98h3.53v13.98h-3.53ZM166.54,42.82l-3.89-5.89h3.84l4.12,5.89h-4.07ZM160.82,38.56v-2.72h3.32c.38,0,.75-.08,1.08-.25.3-.16.55-.4.71-.7.18-.33.27-.69.26-1.07.01-.38-.08-.75-.26-1.08-.17-.3-.41-.54-.71-.7-.33-.17-.71-.26-1.08-.25h-3.32v-2.96h3.12c1.06-.02,2.12.16,3.12.54.82.32,1.52.87,2.01,1.6.49.78.73,1.69.7,2.61v.3c.03.92-.21,1.82-.71,2.59-.5.71-1.2,1.25-2.01,1.56-.99.37-2.05.55-3.11.52h-3.12ZM172.81,42.82l4.45-13.87h5.66l4.6,13.87h-3.65l-3.57-11.4,1.01.38h-2.51l1.03-.38-3.48,11.4h-3.53ZM176.44,39.61l1.06-2.89h5.26l1.06,2.89h-7.39ZM190.9,42.82v-13.87h5.8l4.61,11.06h.67l-.38.34v-11.4h3.3v13.87h-5.83l-4.62-11.06h-.67l.38-.34v11.4h-3.26ZM212.31,42.82v-11.17h3.53v11.17h-3.53ZM208.51,32.03v-3.08h11.13v3.08h-11.13ZM223.29,42.82v-13.87h3.53v13.87h-3.53ZM231.5,42.82v-13.98h3.53v13.98h-3.53ZM239.86,42.82l-3.89-5.89h3.83l4.13,5.89h-4.07ZM234.14,38.56v-2.72h3.32c.38,0,.75-.08,1.08-.25.3-.16.55-.4.71-.7.18-.33.27-.69.26-1.06,0-.38-.08-.75-.26-1.08-.17-.3-.41-.54-.71-.7-.33-.17-.71-.26-1.08-.25h-3.32v-2.96h3.12c1.06-.02,2.12.16,3.12.54.82.32,1.52.87,2.01,1.6.49.78.73,1.69.7,2.61v.3c.03.92-.21,1.82-.71,2.59-.5.71-1.2,1.25-2.01,1.56-.99.37-2.05.55-3.11.52h-3.11ZM251.83,42.82l4.45-13.87h5.66l4.6,13.87h-3.65l-3.57-11.4,1.01.38h-2.51l1.03-.38-3.48,11.4h-3.53ZM255.46,39.61l1.06-2.89h5.26l1.06,2.89h-7.39ZM275.62,42.82v-13.87h4.9l2.85,7.32h.38l2.83-7.32h5v13.87h-3.5v-11.84l.55.04-3.57,9.01h-3.21l-3.59-9.01.59-.04v11.84h-3.23ZM296.25,42.82v-13.87h3.53v13.87h-3.53ZM304.46,42.82v-13.87h5.8l4.61,11.06h.67l-.38.34v-11.4h3.31v13.87h-5.83l-4.62-11.06h-.67l.38-.34v11.4h-3.27ZM331.92,42.82v-13.87h3.53v13.87h-3.53ZM323.1,42.82v-13.87h3.53v13.87h-3.53ZM326.03,37.37v-3.08h6.5v3.08h-6.5ZM338.83,42.82l4.45-13.87h5.66l4.6,13.87h-3.65l-3.57-11.4,1.01.38h-2.51l1.03-.38-3.48,11.4h-3.53ZM342.46,39.61l1.06-2.89h5.26l1.06,2.89h-7.39ZM365.62,42.82l-4.03-13.87h3.65l3.02,11.38-.66-.32h1.82l-.68.32,2.81-11.38h3.53l-3.76,13.87h-5.7ZM376.45,42.82l4.45-13.87h5.66l4.6,13.87h-3.65l-3.57-11.4,1.01.38h-2.51l1.03-.38-3.48,11.4h-3.53ZM380.08,39.61l1.06-2.89h5.26l1.06,2.89h-7.39ZM400.62,43.2c-1.16.03-2.3-.19-3.36-.66-.88-.4-1.67-.98-2.3-1.72-.58-.68-1.03-1.47-1.31-2.32-.27-.79-.41-1.62-.42-2.45v-.42c0-.87.15-1.73.44-2.56.29-.84.74-1.62,1.32-2.29.61-.7,1.37-1.26,2.21-1.64.98-.43,2.04-.64,3.12-.62,1.17-.02,2.33.22,3.39.7.94.44,1.76,1.11,2.37,1.95.6.85.96,1.84,1.04,2.88h-3.53c-.08-.42-.27-.81-.55-1.13-.31-.35-.7-.62-1.13-.8-.5-.2-1.04-.3-1.59-.3-.52-.01-1.03.09-1.51.3-.43.19-.8.48-1.1.84-.31.38-.54.82-.67,1.28-.16.52-.23,1.07-.23,1.61,0,.55.08,1.1.25,1.62.15.48.4.93.72,1.31.33.38.74.68,1.2.86.53.21,1.09.31,1.65.3.71.02,1.41-.15,2.03-.49.54-.29.96-.75,1.2-1.31l-.27,2.09v-3.01h3.23v2.85c-.58,1-1.44,1.8-2.48,2.31-1.16.56-2.44.84-3.72.81ZM400.24,37.92v-2.47h7.71v2.47h-7.71ZM410.14,42.82l4.45-13.87h5.66l4.6,13.87h-3.65l-3.57-11.4,1.01.38h-2.51l1.03-.38-3.48,11.4h-3.53ZM413.77,39.61l1.06-2.89h5.27l1.06,2.89h-7.4Z"></path></g></g></g></svg>