<svg xmlns="http://www.w3.org/2000/svg" xmlns:xlink="http://www.w3.org/1999/xlink" id="Camada_2" viewBox="0 0 465 78"><defs><style> .cls-1 { fill: #fff; } .cls-2 { fill: url(#Gradiente_sem_nome); } .cls-3 { fill: #0065c9; isolation: isolate; opacity: .82; } </style><linearGradient id="Gradiente_sem_nome" data-name="Gradiente sem nome" x1="93.08" y1="188.8" x2="358.62" y2="-2.76" gradientTransform="translate(0 123.22) scale(1 -1)" gradientUnits="userSpaceOnUse"><stop offset="0" stop-color="#0065c9"></stop><stop offset=".31" stop-color="#2b95ff"></stop><stop offset=".48" stop-color="#5daeff"></stop><stop offset=".72" stop-color="#2b95ff"></stop><stop offset="1" stop-color="#005dbb"></stop></linearGradient></defs><g id="Camada_2-2" data-name="Camada_2"><g><g id="Camada_1-2"><g><rect id="Ret&#xE2;ngulo_15660" class="cls-3" y="8" width="465" height="70" rx="6" ry="6"></rect><rect id="Ret&#xE2;ngulo_13" class="cls-2" width="465" height="70" rx="6" ry="6"></rect></g></g><g><path class="cls-1" d="M56.42,43l-2.23-2.22c-1.21.51-2.74.77-4.63.77-5.66,0-8.09-2.35-8.09-6.64s2.43-6.6,8.09-6.6,8.09,2.35,8.09,6.6c0,1.47-.29,2.72-.92,3.73l2.02,2.02-2.33,2.33ZM49.56,38.77c3.44,0,4.78-1.23,4.78-3.86s-1.32-3.82-4.78-3.82-4.78,1.2-4.78,3.82,1.34,3.86,4.78,3.86Z"></path><path class="cls-1" d="M67.01,41.55c-5.66,0-8.09-2.15-8.09-6.64v-6.42h3.31v6.42c0,1.8.5,3.86,4.78,3.86s4.78-2.08,4.78-3.86v-6.42h3.31v6.42c0,4.47-2.45,6.64-8.09,6.64Z"></path><path class="cls-1" d="M79.8,31.12v2.61h10.3v2.39h-10.3v2.61h10.3v2.63h-13.61v-12.87h13.61v2.63h-10.3Z"></path><path class="cls-1" d="M103.54,37.54l2.37,3.82h-3.9l-2.08-3.44h-5.33v3.44h-3.31v-12.87h10.11c2.92,0,4.93,1.86,4.93,4.73,0,2.1-1.07,3.64-2.79,4.32ZM94.61,35.15h5.88c.99,0,2.54,0,2.54-1.93s-1.54-1.95-2.54-1.95h-5.88v3.88Z"></path><path class="cls-1" d="M107.24,34.91c0-4.27,2.43-6.6,8.09-6.6s8.09,2.35,8.09,6.6-2.45,6.64-8.09,6.64-8.09-2.35-8.09-6.64ZM120.11,34.91c0-2.61-1.32-3.82-4.78-3.82s-4.78,1.2-4.78,3.82,1.34,3.86,4.78,3.86,4.78-1.23,4.78-3.86Z"></path><path class="cls-1" d="M141.01,34.47h8.16v6.9h-2.45l-.15-2.02c-1.21,1.32-3.14,2.21-5.88,2.21-4.74,0-7.65-2.35-7.65-6.62s2.91-6.62,8.2-6.62,7.72,2,7.92,5.2h-3.37c-.18-.97-1.07-2.43-4.56-2.43-4.3,0-4.89,2.37-4.89,3.92s.61,3.99,4.89,3.99c3.2,0,4.49-1.4,4.56-2.37h-4.8v-2.15Z"></path><path class="cls-1" d="M163.01,38.62h-7.7l-1.38,2.74h-3.64l6.64-12.87h4.47l6.66,12.87h-3.66l-1.38-2.74ZM161.77,36.16l-2.61-5.22-2.63,5.22h5.24Z"></path><path class="cls-1" d="M181.09,37.54l2.37,3.82h-3.9l-2.08-3.44h-5.33v3.44h-3.31v-12.87h10.11c2.92,0,4.93,1.86,4.93,4.73,0,2.1-1.07,3.64-2.79,4.32ZM172.15,35.15h5.88c.99,0,2.54,0,2.54-1.93s-1.54-1.95-2.54-1.95h-5.88v3.88Z"></path><path class="cls-1" d="M196.89,38.62h-7.7l-1.38,2.74h-3.64l6.64-12.87h4.47l6.66,12.87h-3.66l-1.38-2.74ZM195.65,36.16l-2.61-5.22-2.63,5.22h5.24Z"></path><path class="cls-1" d="M219.31,28.49v12.87h-4.5l-8.77-9.65v9.65h-3.31v-12.87h4.49l8.79,9.67v-9.67h3.31Z"></path><path class="cls-1" d="M236.21,31.27h-6.25v10.09h-3.31v-10.09h-6.25v-2.78h15.81v2.78Z"></path><path class="cls-1" d="M240.61,41.36h-3.31v-12.87h3.31v12.87Z"></path><path class="cls-1" d="M254.33,37.54l2.37,3.82h-3.9l-2.08-3.44h-5.33v3.44h-3.31v-12.87h10.11c2.92,0,4.93,1.86,4.93,4.73,0,2.1-1.07,3.64-2.79,4.32ZM245.39,35.15h5.88c.99,0,2.54,0,2.54-1.93s-1.54-1.95-2.54-1.95h-5.88v3.88Z"></path><path class="cls-1" d="M286.64,41.36h-3.31v-8.83l-5.35,8.83h-2.39l-5.35-8.83v8.83h-3.31v-12.87h4.47l5.39,9.08,5.39-9.08h4.47v12.87Z"></path><path class="cls-1" d="M291.43,41.36h-3.31v-12.87h3.31v12.87Z"></path><path class="cls-1" d="M309.49,28.49v12.87h-4.5l-8.77-9.65v9.65h-3.31v-12.87h4.49l8.79,9.67v-9.67h3.31Z"></path><path class="cls-1" d="M328.06,28.49v12.87h-3.31v-5.04h-10.48v5.04h-3.31v-12.87h3.31v5.04h10.48v-5.04h3.31Z"></path><path class="cls-1" d="M341.58,38.62h-7.7l-1.38,2.74h-3.64l6.64-12.87h4.47l6.66,12.87h-3.66l-1.38-2.74ZM340.35,36.16l-2.61-5.22-2.63,5.22h5.24Z"></path><path class="cls-1" d="M374.01,28.49l-6.62,12.87h-4.52l-6.62-12.87h3.71l5.17,10.43,5.17-10.43h3.71Z"></path><path class="cls-1" d="M382.05,38.62h-7.7l-1.38,2.74h-3.64l6.64-12.87h4.47l6.66,12.87h-3.66l-1.38-2.74ZM380.82,36.16l-2.61-5.22-2.63,5.22h5.24Z"></path><path class="cls-1" d="M394.19,34.47h8.16v6.9h-2.45l-.15-2.02c-1.21,1.32-3.14,2.21-5.88,2.21-4.74,0-7.65-2.35-7.65-6.62s2.91-6.62,8.2-6.62,7.72,2,7.92,5.2h-3.37c-.18-.97-1.07-2.43-4.56-2.43-4.3,0-4.89,2.37-4.89,3.92s.61,3.99,4.89,3.99c3.2,0,4.49-1.4,4.56-2.37h-4.8v-2.15Z"></path><path class="cls-1" d="M416.19,38.62h-7.7l-1.38,2.74h-3.64l6.64-12.87h4.47l6.66,12.87h-3.66l-1.38-2.74ZM414.95,36.16l-2.61-5.22-2.63,5.22h5.24Z"></path></g></g></g></svg>