<svg xmlns="http://www.w3.org/2000/svg" width="411" height="78.648" viewBox="0 0 411 78.648"><g id="Grupo_43878" data-name="Grupo 43878" transform="translate(-707 -1556)"><g id="Grupo_43758" data-name="Grupo 43758" transform="translate(707 1594.945)" opacity="0.77"><g id="Grupo_14931" data-name="Grupo 14931" transform="translate(0 2.014)"><g id="Grupo_14926" data-name="Grupo 14926" transform="translate(14.723 2.945)"><path id="Caminho_1657" data-name="Caminho 1657" d="M-1539.712,573.717a.734.734,0,0,0,.809-.732.733.733,0,0,0-.735-.736.734.734,0,0,0-.736.736A.734.734,0,0,0-1539.712,573.717Z" transform="translate(1540.374 -572.25)" fill="#fff"></path></g><g id="Grupo_14927" data-name="Grupo 14927"><path id="Caminho_1658" data-name="Caminho 1658" d="M-1528.162,573.072a3.685,3.685,0,0,1-3.681-3.681.736.736,0,0,0-.736-.736h-20.611a.736.736,0,0,0-.737.736,3.684,3.684,0,0,1-3.68,3.681.737.737,0,0,0-.736.737v12.012a21.382,21.382,0,0,0,15.247,20.493.745.745,0,0,0,.212.031.743.743,0,0,0,.211-.031,21.385,21.385,0,0,0,15.247-20.493V573.809A.736.736,0,0,0-1528.162,573.072Zm-.737,12.749a19.8,19.8,0,0,1-13.986,19.018,19.9,19.9,0,0,1-13.986-19.018V574.492a5.165,5.165,0,0,0,4.364-4.364h19.244a5.164,5.164,0,0,0,4.364,4.364Z" transform="translate(1558.343 -568.656)" fill="#fff"></path></g><g id="Grupo_14928" data-name="Grupo 14928" transform="translate(2.944 2.945)"><path id="Caminho_1659" data-name="Caminho 1659" d="M-1533.586,572.69a.736.736,0,0,0-.674-.44h-5.032a.736.736,0,0,0-.737.736.736.736,0,0,0,.737.736h4.567a8.1,8.1,0,0,0,3.531,3.531v9.217a16.769,16.769,0,0,1-11.041,15.908,16.769,16.769,0,0,1-11.042-15.908v-9.217a8.092,8.092,0,0,0,3.531-3.531h4.568a.736.736,0,0,0,.736-.736.736.736,0,0,0-.736-.736h-5.033a.737.737,0,0,0-.674.44,6.626,6.626,0,0,1-3.423,3.423.739.739,0,0,0-.441.674v9.683a18.324,18.324,0,0,0,12.268,17.385.725.725,0,0,0,.246.042.723.723,0,0,0,.246-.042,18.324,18.324,0,0,0,12.268-17.385v-9.683a.737.737,0,0,0-.441-.674A6.632,6.632,0,0,1-1533.586,572.69Z" transform="translate(1554.75 -572.25)" fill="#fff"></path></g><g id="Grupo_14929" data-name="Grupo 14929" transform="translate(8.833 10.747)"><path id="Caminho_1660" data-name="Caminho 1660" d="M-1547.562,588.4a6.633,6.633,0,0,0,6.625,6.625,6.632,6.632,0,0,0,6.625-6.625,6.632,6.632,0,0,0-6.625-6.625A6.632,6.632,0,0,0-1547.562,588.4Zm11.778,0a5.159,5.159,0,0,1-5.153,5.153,5.158,5.158,0,0,1-5.153-5.153,5.158,5.158,0,0,1,5.153-5.153A5.159,5.159,0,0,1-1535.784,588.4Z" transform="translate(1547.562 -581.773)" fill="#fff"></path></g><g id="Grupo_14930" data-name="Grupo 14930" transform="translate(12.513 15.164)"><path id="Caminho_1661" data-name="Caminho 1661" d="M-1541.813,589.587a.737.737,0,0,0-1.042,0,.737.737,0,0,0,0,1.041l1.472,1.472a.736.736,0,0,0,.52.216.734.734,0,0,0,.521-.216l3.681-3.681a.736.736,0,0,0,0-1.041.736.736,0,0,0-1.041,0l-3.16,3.16Z" transform="translate(1543.07 -587.164)" fill="#fff"></path></g></g><g id="Grupo_14932" data-name="Grupo 14932" transform="translate(136.23 2.622)"><path id="Caminho_1662" data-name="Caminho 1662" d="M-1355.565,582.678a.643.643,0,0,0-.106-.192,1.847,1.847,0,0,0-1.464-1.181l-10.359-1.505-4.633-9.388-.045-.082a1.9,1.9,0,0,0-1.631-.932,1.9,1.9,0,0,0-1.631.932l-.024.04-4.655,9.43-10.359,1.505a1.847,1.847,0,0,0-1.465,1.181.658.658,0,0,0-.105.192.652.652,0,0,0-.016.332,1.849,1.849,0,0,0,.55,1.483l7.5,7.307-1.77,10.318a1.846,1.846,0,0,0,.441,1.535.654.654,0,0,0,.266.465.645.645,0,0,0,.564.094,1.863,1.863,0,0,0,.571.09,1.882,1.882,0,0,0,.87-.215l9.266-4.871,9.264,4.87a1.878,1.878,0,0,0,.871.215,1.863,1.863,0,0,0,.578-.1.639.639,0,0,0,.174.043.654.654,0,0,0,.5-.233.647.647,0,0,0,.135-.333c.012-.015.029-.025.042-.04a1.865,1.865,0,0,0,.413-1.52l-1.77-10.319,7.5-7.308a1.846,1.846,0,0,0,.55-1.483A.659.659,0,0,0-1355.565,582.678Zm-26.4,8.9a.653.653,0,0,0-.187-.578l-7.859-7.662,10.86-1.578a.653.653,0,0,0,.492-.358l4.858-9.842,4.857,9.842a.655.655,0,0,0,.492.358l10.861,1.578-7.859,7.662a.654.654,0,0,0-.188.578l1.855,10.817-9.713-5.107a.662.662,0,0,0-.305-.075.657.657,0,0,0-.3.075l-9.714,5.107Z" transform="translate(1392.072 -569.398)" fill="#fff"></path></g><g id="Grupo_14988" data-name="Grupo 14988" transform="translate(36.462 10.507)"><g id="Grupo_14986" data-name="Grupo 14986" transform="translate(0.832)"><path id="Caminho_1707" data-name="Caminho 1707" d="M-1508.141,581a2.365,2.365,0,0,0-2.226,2.017,1.569,1.569,0,0,0,1.513,2.027,3.436,3.436,0,0,0,2.031-.908l1.092,1.435a5.707,5.707,0,0,1-3.594,1.512,3.263,3.263,0,0,1-3.431-4.045,4.947,4.947,0,0,1,4.925-3.977,3.834,3.834,0,0,1,3,1.389l-1.625,1.592A2.066,2.066,0,0,0-1508.141,581Z" transform="translate(1512.826 -579.029)" fill="#fff"></path><path id="Caminho_1708" data-name="Caminho 1708" d="M-1498.39,585.743h-3.17l-.692,1.255h-2.4l4.734-7.852h2.4l1.853,7.852h-2.487Zm-.316-1.7-.488-2.565-1.416,2.565Z" transform="translate(1511.349 -579.044)" fill="#fff"></path><path id="Caminho_1709" data-name="Caminho 1709" d="M-1484.633,583.066a4.806,4.806,0,0,1-4.995,3.932h-3.361l1.385-7.852h3.439C-1485.622,579.146-1484.216,580.7-1484.633,583.066Zm-2.379.023c.224-1.267-.4-2.107-1.522-2.107h-1.064l-.739,4.189h1.177A2.279,2.279,0,0,0-1487.012,583.089Z" transform="translate(1509.242 -579.044)" fill="#fff"></path><path id="Caminho_1710" data-name="Caminho 1710" d="M-1477.5,585.743h-3.17l-.692,1.255h-2.4l4.734-7.852h2.4l1.853,7.852h-2.487Zm-.316-1.7-.489-2.565-1.416,2.565Z" transform="translate(1507.574 -579.044)" fill="#fff"></path><path id="Caminho_1711" data-name="Caminho 1711" d="M-1468.066,580.847c-.392,0-.673.135-.725.427-.2,1.154,4.016.47,3.517,3.305-.3,1.669-1.914,2.465-3.672,2.465a5.478,5.478,0,0,1-3.556-1.244l1.187-1.771a4.462,4.462,0,0,0,2.712,1.2c.492,0,.836-.168.9-.527.209-1.188-4.023-.437-3.536-3.2.267-1.513,1.725-2.476,3.685-2.476a5.522,5.522,0,0,1,3.123.907l-1.179,1.793A5.567,5.567,0,0,0-1468.066,580.847Z" transform="translate(1505.54 -579.022)" fill="#fff"></path><path id="Caminho_1712" data-name="Caminho 1712" d="M-1455.365,579.146l-.328,1.859h-2.285l-1.057,5.993h-2.341l1.057-5.993h-2.275l.329-1.859Z" transform="translate(1503.75 -579.044)" fill="#fff"></path><path id="Caminho_1713" data-name="Caminho 1713" d="M-1449.969,587l-.669-2.117h-1.232l-.374,2.117h-2.33l1.385-7.852h3.663c2.106,0,3.138,1.007,2.824,2.789a3.327,3.327,0,0,1-1.762,2.5l1.138,2.564Zm-1.585-3.909h1.333a1.216,1.216,0,0,0,1.29-1.087c.12-.683-.215-1.064-.91-1.064h-1.333Z" transform="translate(1502.301 -579.044)" fill="#fff"></path><path id="Caminho_1714" data-name="Caminho 1714" d="M-1435.819,583.051a5.021,5.021,0,0,1-4.99,4.034c-2.464,0-3.977-1.714-3.568-4.034a4.975,4.975,0,0,1,4.982-3.988C-1436.93,579.063-1435.413,580.754-1435.819,583.051Zm-6.174.011a1.634,1.634,0,0,0,1.561,2.074,2.421,2.421,0,0,0,2.225-2.074,1.579,1.579,0,0,0-1.5-2.051A2.453,2.453,0,0,0-1441.992,583.062Z" transform="translate(1500.471 -579.029)" fill="#fff"></path></g><g id="Grupo_14987" data-name="Grupo 14987" transform="translate(0 11.258)"><path id="Caminho_1715" data-name="Caminho 1715" d="M-1510.863,592.789l-1.427,8.087h-.922l1.275-7.233h-1.9l.151-.854Z" transform="translate(1513.841 -592.767)" fill="#fff"></path><path id="Caminho_1716" data-name="Caminho 1716" d="M-1501.355,596.823c-.462,2.618-1.791,4.072-3.706,4.072s-2.744-1.454-2.282-4.072,1.789-4.061,3.717-4.061S-1500.9,594.215-1501.355,596.823Zm-5.065,0c-.389,2.2.117,3.322,1.491,3.322,1.349,0,2.263-1.119,2.651-3.322s-.134-3.3-1.484-3.3C-1505.135,593.522-1506.032,594.619-1506.42,596.823Z" transform="translate(1512.69 -592.762)" fill="#fff"></path><path id="Caminho_1717" data-name="Caminho 1717" d="M-1493.229,596.823c-.462,2.618-1.791,4.072-3.707,4.072s-2.745-1.454-2.283-4.072,1.789-4.061,3.716-4.061S-1492.77,594.215-1493.229,596.823Zm-5.066,0c-.388,2.2.118,3.322,1.491,3.322,1.35,0,2.263-1.119,2.651-3.322s-.134-3.3-1.484-3.3C-1497.01,593.522-1497.907,594.619-1498.3,596.823Z" transform="translate(1511.222 -592.762)" fill="#fff"></path><path id="Caminho_1718" data-name="Caminho 1718" d="M-1486.689,595.172a2.536,2.536,0,0,1-2.489,2.4c-1.292,0-1.9-.877-1.631-2.4a2.545,2.545,0,0,1,2.479-2.41C-1487.037,592.762-1486.423,593.661-1486.689,595.172Zm4.642-2.376-7.459,8.074h-.9l7.47-8.074Zm-8.128,2.376c-.207,1.177.185,1.834,1.1,1.834s1.536-.656,1.743-1.834-.182-1.846-1.094-1.846S-1489.967,594-1490.175,595.172Zm8.667,3.334a2.535,2.535,0,0,1-2.488,2.4c-1.293,0-1.9-.877-1.631-2.4a2.546,2.546,0,0,1,2.479-2.411C-1481.855,596.1-1481.242,597-1481.508,598.506Zm-3.484,0c-.207,1.176.184,1.835,1.1,1.835s1.536-.659,1.743-1.835-.182-1.845-1.094-1.845S-1484.785,597.33-1484.993,598.506Z" transform="translate(1509.691 -592.762)" fill="#fff"></path><path id="Caminho_1719" data-name="Caminho 1719" d="M-1471.285,593.661c-1.038,0-1.793.415-1.915,1.108-.37,2.1,4.37,1,3.842,3.935-.236,1.338-1.578,2.2-3.309,2.2a3.852,3.852,0,0,1-2.874-1.235l.556-.8a3.377,3.377,0,0,0,2.489,1.13c1.165,0,1.975-.474,2.114-1.258.393-2.156-4.355-1.014-3.845-3.91.224-1.27,1.485-2.076,3.158-2.076a4.142,4.142,0,0,1,2.43.749l-.537.82A3.7,3.7,0,0,0-1471.285,593.661Z" transform="translate(1506.921 -592.762)" fill="#fff"></path><path id="Caminho_1720" data-name="Caminho 1720" d="M-1459.812,592.8l-.151.854h-4.558l-.478,2.71h4.073l-.148.842h-4.074l-.5,2.815h4.708l-.151.853h-5.631l1.424-8.074Z" transform="translate(1505.327 -592.77)" fill="#fff"></path><path id="Caminho_1721" data-name="Caminho 1721" d="M-1451.811,596.929h.819l-.517,2.93a5.822,5.822,0,0,1-3.185,1.049,3.362,3.362,0,0,1-3.494-4.073,5.13,5.13,0,0,1,4.974-4.061,3.857,3.857,0,0,1,2.782,1.108l-.649.669a3.128,3.128,0,0,0-2.282-.934,4.053,4.053,0,0,0-3.891,3.218,2.67,2.67,0,0,0,2.766,3.231,4.468,4.468,0,0,0,2.242-.681Z" transform="translate(1503.797 -592.764)" fill="#fff"></path><path id="Caminho_1722" data-name="Caminho 1722" d="M-1444.638,600.071a2.806,2.806,0,0,0,2.9-2.515l.838-4.752h.922l-.838,4.752a3.81,3.81,0,0,1-3.973,3.358c-2.124,0-3.185-1.245-2.813-3.358l.838-4.752h.923l-.838,4.752A1.9,1.9,0,0,0-1444.638,600.071Z" transform="translate(1501.886 -592.77)" fill="#fff"></path><path id="Caminho_1723" data-name="Caminho 1723" d="M-1432.536,600.878l-1.241-2.583c-.163.011-.338.023-.523.023h-2.146l-.451,2.56h-.924l1.424-8.074h3.069c2.02,0,3.01.992,2.707,2.71a3.158,3.158,0,0,1-2.283,2.608l1.418,2.756Zm-1.614-3.415a2.347,2.347,0,0,0,2.636-1.926c.217-1.234-.5-1.88-1.965-1.88h-2.146l-.671,3.806Z" transform="translate(1500.106 -592.77)" fill="#fff"></path><path id="Caminho_1724" data-name="Caminho 1724" d="M-1419.819,596.836a5.123,5.123,0,0,1-4.942,4.073,3.367,3.367,0,0,1-3.516-4.073,5.114,5.114,0,0,1,4.951-4.061A3.358,3.358,0,0,1-1419.819,596.836Zm-7.524,0a2.673,2.673,0,0,0,2.731,3.231,4.055,4.055,0,0,0,3.847-3.231,2.642,2.642,0,0,0-2.712-3.207A4.054,4.054,0,0,0-1427.343,596.836Z" transform="translate(1498.393 -592.764)" fill="#fff"></path></g></g><g id="Grupo_14991" data-name="Grupo 14991" transform="translate(176.726 8.931)"><g id="Grupo_14989" data-name="Grupo 14989" transform="translate(0.175)"><path id="Caminho_1725" data-name="Caminho 1725" d="M-1338,582.139c-.392,0-.673.135-.724.427-.2,1.154,4.016.47,3.516,3.305-.294,1.669-1.913,2.465-3.671,2.465a5.481,5.481,0,0,1-3.556-1.244l1.186-1.771a4.467,4.467,0,0,0,2.713,1.2c.493,0,.836-.168.9-.527.21-1.188-4.023-.437-3.535-3.2.266-1.512,1.725-2.476,3.685-2.476a5.519,5.519,0,0,1,3.122.907l-1.178,1.793A5.576,5.576,0,0,0-1338,582.139Z" transform="translate(1342.433 -577.68)" fill="#fff"></path><path id="Caminho_1726" data-name="Caminho 1726" d="M-1327.76,587.036h-3.17l-.692,1.253h-2.4l4.734-7.852h2.4l1.853,7.852h-2.487Zm-.316-1.7-.488-2.565-1.416,2.565Z" transform="translate(1340.913 -577.702)" fill="#fff"></path><path id="Caminho_1727" data-name="Caminho 1727" d="M-1315.63,580.437l-.328,1.859h-2.285l-1.057,5.993h-2.342l1.057-5.993h-2.273l.327-1.859Z" transform="translate(1338.896 -577.702)" fill="#fff"></path><path id="Caminho_1728" data-name="Caminho 1728" d="M-1311.123,580.437l-1.384,7.852h-2.33l1.385-7.852Z" transform="translate(1337.447 -577.702)" fill="#fff"></path><path id="Caminho_1729" data-name="Caminho 1729" d="M-1306.335,582.139c-.392,0-.673.135-.725.427-.2,1.154,4.016.47,3.517,3.305-.295,1.669-1.914,2.465-3.672,2.465a5.481,5.481,0,0,1-3.556-1.244l1.187-1.771a4.463,4.463,0,0,0,2.712,1.2c.492,0,.836-.168.9-.527.21-1.188-4.022-.437-3.534-3.2.266-1.512,1.724-2.476,3.685-2.476a5.518,5.518,0,0,1,3.122.907l-1.178,1.793A5.577,5.577,0,0,0-1306.335,582.139Z" transform="translate(1336.713 -577.68)" fill="#fff"></path><path id="Caminho_1730" data-name="Caminho 1730" d="M-1293.948,580.437l-.316,1.792h-3.764l-.276,1.568h3.494l-.316,1.793h-3.495l-.476,2.7h-2.33l1.384-7.852Z" transform="translate(1335.024 -577.702)" fill="#fff"></path><path id="Caminho_1731" data-name="Caminho 1731" d="M-1288.127,587.036h-3.17l-.693,1.253h-2.4l4.734-7.852h2.4l1.852,7.852h-2.487Zm-.316-1.7-.488-2.565-1.416,2.565Z" transform="translate(1333.752 -577.702)" fill="#fff"></path><path id="Caminho_1732" data-name="Caminho 1732" d="M-1276.777,585.429l1.091,1.435a5.937,5.937,0,0,1-2.968,1.456l-.362.527a.793.793,0,0,1,.588.919,1.6,1.6,0,0,1-1.716,1.221,1.807,1.807,0,0,1-1.033-.37l.566-.919a.619.619,0,0,0,.464.224.479.479,0,0,0,.5-.381c.041-.236-.111-.392-.425-.392a3.017,3.017,0,0,0-.411.045l.578-.864a3.207,3.207,0,0,1-2.813-4,4.947,4.947,0,0,1,4.925-3.977,3.838,3.838,0,0,1,3,1.389l-1.625,1.592a2.067,2.067,0,0,0-1.687-1.042,2.366,2.366,0,0,0-2.227,2.017,1.569,1.569,0,0,0,1.513,2.027A3.438,3.438,0,0,0-1276.777,585.429Z" transform="translate(1331.655 -577.687)" fill="#fff"></path><path id="Caminho_1733" data-name="Caminho 1733" d="M-1268.346,586.433h-3.17l-.691,1.253h-2.4l4.734-7.852h2.4l1.853,7.852h-2.487Zm-.943-7.418h-1.378c.229-1.3.752-1.916,1.593-1.916.672,0,.9.483,1.181.483.212,0,.328-.146.381-.448h1.366c-.229,1.3-.741,1.916-1.58,1.916-.695,0-.9-.482-1.193-.482C-1269.121,578.567-1269.236,578.712-1269.289,579.015Zm.628,5.713-.489-2.565-1.416,2.565Z" transform="translate(1330.178 -577.099)" fill="#fff"></path><path id="Caminho_1734" data-name="Caminho 1734" d="M-1254.374,584.342a5.022,5.022,0,0,1-4.99,4.034c-2.464,0-3.976-1.715-3.567-4.034a4.975,4.975,0,0,1,4.982-3.988C-1255.485,580.354-1253.969,582.045-1254.374,584.342Zm-6.173.011a1.633,1.633,0,0,0,1.561,2.074,2.421,2.421,0,0,0,2.225-2.074,1.579,1.579,0,0,0-1.5-2.051A2.452,2.452,0,0,0-1260.547,584.353Z" transform="translate(1328.082 -577.687)" fill="#fff"></path></g><g id="Grupo_14990" data-name="Grupo 14990" transform="translate(0 13.082)"><path id="Caminho_1735" data-name="Caminho 1735" d="M-1336.208,597.22h.82l-.517,2.93a5.822,5.822,0,0,1-3.185,1.049,3.362,3.362,0,0,1-3.494-4.073,5.129,5.129,0,0,1,4.973-4.06,3.857,3.857,0,0,1,2.782,1.108l-.649.669a3.127,3.127,0,0,0-2.282-.934,4.053,4.053,0,0,0-3.891,3.218,2.67,2.67,0,0,0,2.766,3.231,4.465,4.465,0,0,0,2.243-.681Z" transform="translate(1342.647 -593.066)" fill="#fff"></path><path id="Caminho_1736" data-name="Caminho 1736" d="M-1327.265,599.1h-4.4l-1.264,2.065h-.981l5.047-8.074h.958l2.188,8.074h-1Zm-.219-.853-1.1-4.154-2.544,4.154Z" transform="translate(1341.067 -593.071)" fill="#fff"></path><path id="Caminho_1737" data-name="Caminho 1737" d="M-1317.636,601.169l-1.241-2.583c-.163.011-.339.023-.524.023h-2.146l-.452,2.56h-.924l1.424-8.074h3.069c2.02,0,3.01.992,2.707,2.71a3.158,3.158,0,0,1-2.283,2.608l1.418,2.756Zm-1.614-3.415a2.348,2.348,0,0,0,2.637-1.926c.217-1.234-.5-1.88-1.965-1.88h-2.147l-.671,3.806Z" transform="translate(1339.083 -593.071)" fill="#fff"></path><path id="Caminho_1738" data-name="Caminho 1738" d="M-1308.1,599.1h-4.4l-1.264,2.065h-.981l5.047-8.074h.958l2.188,8.074h-1Zm-.219-.853-1.1-4.154-2.544,4.154Z" transform="translate(1337.605 -593.071)" fill="#fff"></path><path id="Caminho_1739" data-name="Caminho 1739" d="M-1301.375,593.095l3.689,6.564,1.157-6.564h.912l-1.424,8.074h-.947l-3.691-6.552-1.156,6.552h-.923l1.424-8.074Z" transform="translate(1335.62 -593.071)" fill="#fff"></path><path id="Caminho_1740" data-name="Caminho 1740" d="M-1286.562,593.095l-.151.854h-2.642l-1.273,7.221h-.923l1.273-7.221h-2.631l.151-.854Z" transform="translate(1333.661 -593.071)" fill="#fff"></path><path id="Caminho_1741" data-name="Caminho 1741" d="M-1283.484,593.095l-1.424,8.074h-.923l1.424-8.074Z" transform="translate(1332.382 -593.071)" fill="#fff"></path><path id="Caminho_1742" data-name="Caminho 1742" d="M-1274.15,597.132a5.008,5.008,0,0,1-4.9,4.038h-3.232l1.424-8.074h3.266A3.287,3.287,0,0,1-1274.15,597.132Zm-.937.012a2.592,2.592,0,0,0-2.679-3.195h-2.319l-1.122,6.368h2.354A3.9,3.9,0,0,0-1275.087,597.143Z" transform="translate(1331.741 -593.071)" fill="#fff"></path><path id="Caminho_1743" data-name="Caminho 1743" d="M-1266.769,599.1h-4.4l-1.264,2.065h-.981l5.047-8.074h.958l2.188,8.074h-1Zm-.219-.853-1.1-4.154-2.544,4.154Z" transform="translate(1330.138 -593.071)" fill="#fff"></path></g></g><g id="Grupo_14994" data-name="Grupo 14994" transform="translate(330.435 10.54)"><g id="Grupo_14992" data-name="Grupo 14992"><path id="Caminho_1744" data-name="Caminho 1744" d="M-1147.4,581.935a3.441,3.441,0,0,1-3.711,2.946h-1.232l-.374,2.117h-2.33l1.384-7.852h3.563C-1148.069,579.146-1147.082,580.153-1147.4,581.935Zm-2.218.067c.12-.683-.216-1.064-.91-1.064h-1.121l-.379,2.152h1.12A1.216,1.216,0,0,0-1149.614,582Z" transform="translate(1155.044 -579.078)" fill="#fff"></path><path id="Caminho_1745" data-name="Caminho 1745" d="M-1141.1,587l-.668-2.117H-1143l-.374,2.117h-2.329l1.385-7.852h3.663c2.106,0,3.138,1.007,2.823,2.789a3.328,3.328,0,0,1-1.762,2.5l1.138,2.564Zm-1.585-3.909h1.333a1.216,1.216,0,0,0,1.29-1.087c.12-.683-.216-1.064-.911-1.064h-1.333Z" transform="translate(1153.357 -579.078)" fill="#fff"></path><path id="Caminho_1746" data-name="Caminho 1746" d="M-1132.08,579.146l-1.385,7.852h-2.33l1.385-7.852Z" transform="translate(1151.566 -579.078)" fill="#fff"></path><path id="Caminho_1747" data-name="Caminho 1747" d="M-1128.009,579.146l.834,5.433,2.751-5.433h2.386l-4.42,7.852h-2.42l-1.618-7.852Z" transform="translate(1150.609 -579.078)" fill="#fff"></path><path id="Caminho_1748" data-name="Caminho 1748" d="M-1116.562,585.745h-3.171l-.692,1.253h-2.4l4.735-7.852h2.4l1.852,7.852h-2.486Zm-.316-1.7-.488-2.565-1.416,2.565Z" transform="translate(1149.222 -579.078)" fill="#fff"></path><path id="Caminho_1749" data-name="Caminho 1749" d="M-1106.53,581a2.366,2.366,0,0,0-2.227,2.017,1.569,1.569,0,0,0,1.513,2.027,3.437,3.437,0,0,0,2.031-.908l1.091,1.435a5.709,5.709,0,0,1-3.594,1.512,3.264,3.264,0,0,1-3.432-4.045,4.947,4.947,0,0,1,4.925-3.977,3.837,3.837,0,0,1,3,1.389l-1.625,1.592A2.068,2.068,0,0,0-1106.53,581Z" transform="translate(1147.125 -579.063)" fill="#fff"></path><path id="Caminho_1750" data-name="Caminho 1750" d="M-1098.286,579.146l-1.385,7.852H-1102l1.385-7.852Z" transform="translate(1145.461 -579.078)" fill="#fff"></path><path id="Caminho_1751" data-name="Caminho 1751" d="M-1089.188,583.066a4.807,4.807,0,0,1-5,3.932h-3.36l1.385-7.852h3.439C-1090.177,579.146-1088.772,580.7-1089.188,583.066Zm-2.379.023c.224-1.267-.4-2.107-1.521-2.107h-1.064l-.738,4.19h1.176A2.279,2.279,0,0,0-1091.568,583.089Z" transform="translate(1144.656 -579.078)" fill="#fff"></path><path id="Caminho_1752" data-name="Caminho 1752" d="M-1082.057,585.745h-3.17l-.692,1.253h-2.4l4.734-7.852h2.4l1.853,7.852h-2.487Zm-.316-1.7-.488-2.565-1.416,2.565Z" transform="translate(1142.988 -579.078)" fill="#fff"></path><path id="Caminho_1753" data-name="Caminho 1753" d="M-1068.3,583.066a4.806,4.806,0,0,1-4.995,3.932h-3.361l1.386-7.852h3.439C-1069.288,579.146-1067.882,580.7-1068.3,583.066Zm-2.379.023c.224-1.267-.4-2.107-1.521-2.107h-1.064l-.738,4.19h1.176A2.279,2.279,0,0,0-1070.678,583.089Z" transform="translate(1140.881 -579.078)" fill="#fff"></path><path id="Caminho_1754" data-name="Caminho 1754" d="M-1058.434,579.146l-.316,1.792h-4.089l-.218,1.232h3.707l-.315,1.793h-3.708l-.219,1.244h4.2l-.316,1.792h-6.531l1.386-7.852Z" transform="translate(1138.999 -579.078)" fill="#fff"></path></g><g id="Grupo_14993" data-name="Grupo 14993" transform="translate(0.437 11.235)"><path id="Caminho_1755" data-name="Caminho 1755" d="M-1147.378,595.514a3.348,3.348,0,0,1-3.645,2.8h-2.112l-.452,2.56h-.923l1.424-8.074h3.035C-1148.055,592.8-1147.076,593.8-1147.378,595.514Zm-.893.023c.218-1.234-.51-1.88-1.965-1.88h-2.077l-.671,3.806h2.077A2.353,2.353,0,0,0-1148.272,595.537Z" transform="translate(1154.51 -592.78)" fill="#fff"></path><path id="Caminho_1756" data-name="Caminho 1756" d="M-1140.368,600.878l-1.24-2.583c-.164.011-.339.023-.523.023h-2.147l-.452,2.56h-.923l1.424-8.074h3.07c2.02,0,3.009.992,2.707,2.71a3.161,3.161,0,0,1-2.284,2.608l1.418,2.756Zm-1.613-3.415a2.346,2.346,0,0,0,2.636-1.926c.218-1.234-.5-1.88-1.965-1.88h-2.146l-.672,3.806Z" transform="translate(1152.91 -592.78)" fill="#fff"></path><path id="Caminho_1757" data-name="Caminho 1757" d="M-1127.651,596.836a5.122,5.122,0,0,1-4.941,4.073,3.367,3.367,0,0,1-3.517-4.073,5.114,5.114,0,0,1,4.95-4.061A3.357,3.357,0,0,1-1127.651,596.836Zm-7.524,0a2.673,2.673,0,0,0,2.731,3.231,4.055,4.055,0,0,0,3.847-3.231,2.642,2.642,0,0,0-2.712-3.207A4.055,4.055,0,0,0-1135.175,596.836Z" transform="translate(1151.197 -592.775)" fill="#fff"></path><path id="Caminho_1758" data-name="Caminho 1758" d="M-1118.713,592.8l-.151.854h-2.642l-1.273,7.221h-.923l1.274-7.221h-2.632l.151-.854Z" transform="translate(1149.189 -592.78)" fill="#fff"></path><path id="Caminho_1759" data-name="Caminho 1759" d="M-1111.077,592.8l-.151.854h-4.558l-.477,2.71h4.074l-.149.842h-4.073l-.5,2.815h4.708l-.151.853h-5.631l1.424-8.074Z" transform="translate(1147.911 -592.78)" fill="#fff"></path><path id="Caminho_1760" data-name="Caminho 1760" d="M-1103.076,596.929h.819l-.516,2.93a5.827,5.827,0,0,1-3.185,1.049,3.362,3.362,0,0,1-3.494-4.073,5.13,5.13,0,0,1,4.974-4.061,3.855,3.855,0,0,1,2.782,1.108l-.649.669a3.126,3.126,0,0,0-2.282-.934,4.052,4.052,0,0,0-3.89,3.218,2.669,2.669,0,0,0,2.765,3.231,4.473,4.473,0,0,0,2.243-.681Z" transform="translate(1146.381 -592.775)" fill="#fff"></path><path id="Caminho_1761" data-name="Caminho 1761" d="M-1096.991,592.8l-1.424,8.074h-.923l1.424-8.074Z" transform="translate(1144.542 -592.78)" fill="#fff"></path><path id="Caminho_1762" data-name="Caminho 1762" d="M-1087.657,596.841a5.009,5.009,0,0,1-4.9,4.038h-3.231l1.424-8.074h3.266A3.287,3.287,0,0,1-1087.657,596.841Zm-.937.011a2.592,2.592,0,0,0-2.679-3.195h-2.32l-1.122,6.368h2.354A3.9,3.9,0,0,0-1088.594,596.852Z" transform="translate(1143.901 -592.78)" fill="#fff"></path><path id="Caminho_1763" data-name="Caminho 1763" d="M-1080.276,598.814h-4.4l-1.264,2.065h-.982l5.047-8.074h.958l2.188,8.074h-1Zm-.219-.853-1.1-4.154-2.544,4.154Z" transform="translate(1142.298 -592.78)" fill="#fff"></path></g></g><g id="padlock" transform="translate(289.613 0)"><g id="Grupo_22267" data-name="Grupo 22267" transform="translate(9.447 18.965)"><g id="Grupo_22266" data-name="Grupo 22266"><path id="Caminho_7749" data-name="Caminho 7749" d="M203.2,278.135a4.2,4.2,0,1,0-6,0l-1.16,4.2a1.05,1.05,0,0,0,1.012,1.329h6.3a1.05,1.05,0,0,0,1.012-1.329Zm-2.2-.081.97,3.513h-3.541l.97-3.513a1.05,1.05,0,0,0-.407-1.137,2.1,2.1,0,1,1,2.415,0A1.05,1.05,0,0,0,201,278.054Z" transform="translate(-195.999 -271)" fill="#fff"></path></g></g><g id="Grupo_22269" data-name="Grupo 22269" transform="translate(0)"><g id="Grupo_22268" data-name="Grupo 22268"><path id="Caminho_7750" data-name="Caminho 7750" d="M85.143,14.766V10.5a10.5,10.5,0,0,0-20.994,0v4.269A3.153,3.153,0,0,0,61,17.915V32.681a3.153,3.153,0,0,0,3.149,3.149H85.143a3.153,3.153,0,0,0,3.149-3.149V17.915A3.153,3.153,0,0,0,85.143,14.766ZM66.248,10.5a8.4,8.4,0,0,1,16.8,0v4.269h-2.1V10.5a6.3,6.3,0,0,0-12.6,0v4.269h-2.1Zm12.6,0v4.269h-8.4V10.5a4.2,4.2,0,0,1,8.4,0Zm7.348,22.184a1.051,1.051,0,0,1-1.05,1.05H64.149a1.051,1.051,0,0,1-1.05-1.05V17.915a1.051,1.051,0,0,1,1.05-1.05H85.143a1.051,1.051,0,0,1,1.05,1.05Z" transform="translate(-61)" fill="#fff"></path></g></g></g></g><g id="Grupo_43787" data-name="Grupo 43787" transform="translate(711.227 1556)"><g id="Grupo_43717" data-name="Grupo 43717" transform="translate(129.728)"><g id="Grupo_14215" data-name="Grupo 14215"><g id="Grupo_14212" data-name="Grupo 14212" transform="translate(3.831 9.372)"><path id="Caminho_782" data-name="Caminho 782" d="M-1401.586,1362.845l-1.687-3.543h-2.1v4.941l-2.185-4.941h-1.921l-2.31,5.228h1.405l.5-1.171h2.686l.5,1.172h2.623v-4.1l1.868,4.1h1.14l1.858-4.1.01,4.1h1.275V1359.3h-2.1Zm-7.848-.57.885-2.088.884,2.088Z" transform="translate(1411.794 -1359.302)" fill="#fff"></path></g><g id="Grupo_14213" data-name="Grupo 14213" transform="translate(18.854 9.372)"><path id="Caminho_783" data-name="Caminho 783" d="M-1375.643,1359.3l-1.636,1.712-1.585-1.712h-5.182v5.226h5.1l1.645-1.732,1.584,1.732h1.657l-2.408-2.6,2.408-2.628Zm-3.953,4.143h-3.171V1362.4h2.827v-1.065h-2.827v-.954h3.234l1.411,1.527Z" transform="translate(1384.047 -1359.302)" fill="#fff"></path></g><g id="Grupo_14214" data-name="Grupo 14214"><path id="Caminho_784" data-name="Caminho 784" d="M-1387.605,1341.993h-29.179a2.085,2.085,0,0,0-2.085,2.085v19.8a2.084,2.084,0,0,0,2.085,2.084h29.179a2.085,2.085,0,0,0,2.084-2.084v-19.8A2.085,2.085,0,0,0-1387.605,1341.993Zm0,15.634-4.635-.01-1.027-1.131-1.1,1.131h-9.025v-.9l-.387.9h-2.245l-.387-.886v.886h-4.339l-.489-1.162h-1.118l-.489,1.162h-3.942l3.292-7.287h3.364l.438.856v-.856h3.934l.862,1.881.843-1.881h9.818l.995,1.111,1.068-1.111h4.563l-3.3,3.664Z" transform="translate(1418.869 -1341.993)" fill="#fff"></path></g></g></g><g id="Grupo_43715" data-name="Grupo 43715" transform="translate(0 5.02)"><g id="Grupo_14233" data-name="Grupo 14233" transform="translate(3.998 0)"><g id="Grupo_14229" data-name="Grupo 14229" transform="translate(0 0)"><path id="Caminho_795" data-name="Caminho 795" d="M-1577.7,1350.516v0l-3.7,9.995-.345-1.684a12.79,12.79,0,0,0-5.147-5.747l3.253,12.133h4l5.941-14.7Z" transform="translate(1586.896 -1350.515)" fill="#fff"></path></g><g id="Grupo_14230" data-name="Grupo 14230" transform="translate(12.351)"><path id="Caminho_796" data-name="Caminho 796" d="M-1564.084,1365.227h3.779l2.363-14.712h-3.778Z" transform="translate(1564.084 -1350.515)" fill="#fff"></path></g><g id="Grupo_14231" data-name="Grupo 14231" transform="translate(29.009 0.046)"><path id="Caminho_797" data-name="Caminho 797" d="M-1522.808,1350.6h-2.924a1.873,1.873,0,0,0-1.975,1.183l-5.613,13.483h3.965l1.093-2.919h4.437l.566,2.931h3.5Zm-4.354,8.8c.077.007,1.521-4.765,1.521-4.765l1.152,4.765Z" transform="translate(1533.32 -1350.599)" fill="#fff"></path></g><g id="Grupo_14232" data-name="Grupo 14232" transform="translate(18.495 0.019)"><path id="Caminho_798" data-name="Caminho 798" d="M-1545.118,1356.524c-1.32-.652-2.13-1.093-2.13-1.759.016-.607.685-1.227,2.178-1.227a6.58,6.58,0,0,1,2.814.545l.343.153.513-3.078a9.525,9.525,0,0,0-3.392-.607c-3.731,0-6.359,1.94-6.375,4.715-.031,2.048,1.881,3.184,3.312,3.866,1.462.7,1.96,1.153,1.96,1.774-.017.954-1.182,1.394-2.27,1.394a7.682,7.682,0,0,1-3.547-.757l-.5-.227-.529,3.2a11.8,11.8,0,0,0,4.215.759c3.966,0,6.547-1.911,6.579-4.868C-1541.932,1358.782-1542.94,1357.54-1545.118,1356.524Z" transform="translate(1552.738 -1350.55)" fill="#fff"></path></g></g><g id="Grupo_14235" data-name="Grupo 14235" transform="translate(0 0.003)"><g id="Grupo_14234" data-name="Grupo 14234"><path id="Caminho_799" data-name="Caminho 799" d="M-1585.9,1352.415a2.468,2.468,0,0,0-2.458-1.894h-5.863l-.061.272c4.574,1.127,8.413,4.6,9.658,7.861Zm0,0" transform="translate(1594.279 -1350.521)" fill="#fff"></path></g></g></g><g id="Grupo_43716" data-name="Grupo 43716" transform="translate(73.101 2.463)"><g id="Grupo_14201" data-name="Grupo 14201" transform="translate(0 0)"><path id="Caminho_771" data-name="Caminho 771" d="M-1477.576,1358.669c1.138.018,1.715.035,1.7.02a9.206,9.206,0,0,0,1.032-.889l-3.507-.052a9.472,9.472,0,0,1-.635-.956h4.875a8.561,8.561,0,0,0,.555-.948h-5.913a9.264,9.264,0,0,1-.358-.95h6.68c.108-.322.193-.632.268-.94h-7.19a9.624,9.624,0,0,1-.143-.953h7.5c.01-.09.017-.185.026-.278.014-.2.03-.407.031-.615,0-.02,0-.039,0-.059h-7.609c0-.321.016-.639.048-.952h7.506c-.037-.31-.092-.616-.162-.945h-7.2a9.32,9.32,0,0,1,.264-1.007h6.658a7.976,7.976,0,0,0-.409-.919h-5.9a9.351,9.351,0,0,1,.486-.949h4.859a8.784,8.784,0,0,0-.734-.949h-3.492a9.877,9.877,0,0,1,.859-1.008l1.981-.032c-.036-.046-.076-.085-.113-.127a9.478,9.478,0,0,0-6.561-2.634,9.52,9.52,0,0,0-9.518,9.521,9.519,9.519,0,0,0,9.518,9.521,9.463,9.463,0,0,0,5.72-1.923A9.6,9.6,0,0,1-1477.576,1358.669Z" transform="translate(1491.691 -1342.527)" fill="#fff"></path></g><g id="Grupo_14236" data-name="Grupo 14236" transform="translate(15.682 0)"><path id="Caminho_800" data-name="Caminho 800" d="M-1457.521,1342.527a9.464,9.464,0,0,0-5.207,1.556,9.665,9.665,0,0,1,4.184,7.965,9.665,9.665,0,0,1-4.184,7.965,9.466,9.466,0,0,0,5.207,1.556,9.519,9.519,0,0,0,9.519-9.521A9.52,9.52,0,0,0-1457.521,1342.527Z" transform="translate(1462.728 -1342.527)" fill="#fff"></path></g></g><g id="klarna" transform="translate(189.445 5.537)"><path id="Caminho_7756" data-name="Caminho 7756" d="M60.032,17.949a1.636,1.636,0,1,0,1.156.485,1.636,1.636,0,0,0-1.156-.485Zm-5.363-1.27a2.355,2.355,0,1,0-2.351,2.25,2.3,2.3,0,0,0,2.351-2.25Zm.009-4.377h2.6v8.752h-2.6v-.56a4.525,4.525,0,0,1-2.574.8,4.617,4.617,0,0,1,0-9.234,4.515,4.515,0,0,1,2.574.8ZM33.9,13.442V12.3H31.24v8.751h2.665V16.967c0-1.379,1.48-2.119,2.507-2.119h.031V12.3A3.226,3.226,0,0,0,33.9,13.442Zm-6.623,3.236a2.355,2.355,0,1,0-2.351,2.25A2.3,2.3,0,0,0,27.276,16.678Zm.009-4.377h2.6v8.752h-2.6v-.56a4.527,4.527,0,0,1-2.574.8,4.617,4.617,0,0,1,0-9.234,4.515,4.515,0,0,1,2.574.8Zm15.629-.234a3.146,3.146,0,0,0-2.675,1.22V12.3H37.654v8.751h2.617v-4.6a1.837,1.837,0,0,1,1.949-1.983c1.14,0,1.8.688,1.8,1.965v4.617h2.593V15.489A3.447,3.447,0,0,0,42.914,12.068ZM16.353,21.054h2.718V8.4H16.353Zm-11.94,0H7.292V8.4H4.415ZM14.482,8.4a10.111,10.111,0,0,1-2.944,7.184l3.978,5.473H11.961L7.639,15.11l1.116-.844A7.289,7.289,0,0,0,11.663,8.4h2.816Z" transform="translate(-4.413 -8.4)" fill="#fff"></path></g><path id="venmo" d="M12.638,484.454a4.221,4.221,0,0,1,.585,2.3c0,2.872-2.441,6.759-4.451,9.344H4.167L2.3,485.038l4.164-.287,1.005,7.908c.862-1.436,2.02-3.887,2.02-5.456a4.241,4.241,0,0,0-.431-2.02Zm5.313,4.892c.718,0,2.585-.287,2.585-1.436,0-.585-.287-.718-.718-.718A2.081,2.081,0,0,0,17.951,489.346Zm-.133,2.154a1.625,1.625,0,0,0,1.723,1.867,8.018,8.018,0,0,0,3.3-.861l-.585,3.159a9.082,9.082,0,0,1-3.733.718c-3.436,0-4.738-2.154-4.738-4.738,0-3.436,2.02-7.036,6.174-7.036,2.3,0,3.59,1.3,3.59,3.159.154,2.728-3.59,3.733-5.733,3.733Zm17.518-4.461a4.885,4.885,0,0,1-.144,1.436l-1.149,7.61H30.166l1.149-7.036c0-.144.144-.585.144-.718,0-.585-.287-.585-.718-.585a2.772,2.772,0,0,0-1.3.431L28,496.084H24.115l1.723-11.5h3.436v.862a5.61,5.61,0,0,1,3.3-1.149C34.618,484.608,35.335,485.6,35.335,487.038Zm11.631-1.282a5.524,5.524,0,0,1,3.59-1.3c2.02,0,2.738,1.005,2.738,2.585a4.885,4.885,0,0,1-.144,1.436l-1.138,7.62H48.125l1.149-7.179v-.585c0-.585-.287-.718-.718-.718a2.054,2.054,0,0,0-1.3.431l-1.292,8.041H42.074l1.149-7.179v-.585c0-.585-.287-.718-.718-.718a2.77,2.77,0,0,0-1.3.431l-1.292,8.031H36.023l1.733-11.487h3.3l.144,1.005a5.266,5.266,0,0,1,3.3-1.149,3.285,3.285,0,0,1,2.462,1.323ZM61.038,489.2c0-1.005-.287-1.579-1.005-1.579-1.579,0-1.867,2.738-1.867,4.164,0,1.005.287,1.723,1.005,1.723C60.761,493.367,61.038,490.495,61.038,489.2Zm-6.749,2.3c0-3.59,1.867-7.036,6.318-7.036,3.3,0,4.451,2.02,4.451,4.6,0,3.59-1.867,7.179-6.318,7.179C55.438,496.382,54.289,494.228,54.289,491.5Z" transform="translate(338.492 -477.95)" fill="#fff"></path><g id="zelle-1" transform="translate(272.84 2.221)"><path id="Caminho_7757" data-name="Caminho 7757" d="M357.067,218l-3.819-.035V220.5h6.329L353,228.928v2.144h4.067v2.469h2.44v-2.469h4.149a.652.652,0,0,0-.174-.609,5.94,5.94,0,0,1-.924-1.366c-.122-.238-.215-.524-.25-.547-.817-.037-5.517-.028-5.514-.057l6.583-8.483V218h-3.87v-2.5h-2.44V218Zm17.623-1.18c-.058.023-.076,1.307-.076,6.171,0,6.572-.006,6.461.285,7.025a2.586,2.586,0,0,0,1.615,1.145,6.8,6.8,0,0,0,2,.023c.575-.122.686-.3.459-.744a4.947,4.947,0,0,1-.383-1.226c-.064-.4-.145-.465-.633-.453a1.778,1.778,0,0,1-.494-.035c-.238-.151-.238-.192-.238-6.078,0-3.783-.017-5.683-.058-5.758-.058-.1-.134-.11-1.238-.1C375.289,216.784,374.726,216.8,374.691,216.819Zm5.328.017c-.076.046-.087.79-.087,6.113,0,5.735.006,6.084.11,6.485a2.242,2.242,0,0,0,1.493,1.627,2.546,2.546,0,0,0,1.127.174,3.412,3.412,0,0,0,1.772-.267c.442-.215.453-.366.076-.918-.151-.221-.383-.6-.511-.837l-.232-.436-.424-.006c-.529-.012-.581-.035-.68-.285a50.765,50.765,0,0,1-.087-5.84c0-3.783-.017-5.683-.058-5.758-.058-.1-.134-.11-1.238-.11a8.217,8.217,0,0,0-1.261.058Z" transform="translate(-353 -215.5)" fill="#fff"></path><path id="Caminho_7758" data-name="Caminho 7758" d="M530.987,269.732c-.029.012-.256.064-.494.116a4.866,4.866,0,0,0-3.37,2.94,6,6,0,0,0-.424,2.347,5.314,5.314,0,0,0,.854,3.155,4.966,4.966,0,0,0,2.94,2.057,10.046,10.046,0,0,0,3.231.006,6.057,6.057,0,0,0,2.6-1.424c.447-.418.442-.535-.012-.883a7.275,7.275,0,0,1-.744-.7c-.279-.3-.447-.436-.535-.436a.982.982,0,0,0-.447.291,3.4,3.4,0,0,1-2.435.825,2.615,2.615,0,0,1-2.063-.75,3.066,3.066,0,0,1-.558-1.139l-.035-.215h3.62c1.993,0,3.661-.023,3.7-.052.192-.122.238-.965.1-1.883a4.728,4.728,0,0,0-3.707-4.166,4.916,4.916,0,0,0-1.319-.11C531.422,269.709,531.021,269.721,530.987,269.732Zm1.551,2.243a2.465,2.465,0,0,1,1.191.657,2.579,2.579,0,0,1,.517,1.011l.041.186h-4.736l.041-.186a2.283,2.283,0,0,1,1.685-1.65A3.07,3.07,0,0,1,532.538,271.975Zm19.57-2.191a4.939,4.939,0,0,0-3.893,4.056,6.438,6.438,0,0,0,.378,3.8,4.808,4.808,0,0,0,3.573,2.754,5.333,5.333,0,0,0,1.569.1,6.189,6.189,0,0,0,1.406-.151,5.776,5.776,0,0,0,2.533-1.377c.511-.494.511-.517-.041-.976a7.141,7.141,0,0,1-.761-.732c-.378-.436-.477-.442-.9-.058a3.35,3.35,0,0,1-2.44.825,2.343,2.343,0,0,1-2.615-1.917l-.041-.151h7.362c.25-.18.157-2.086-.145-2.969a6.662,6.662,0,0,0-.343-.767,4.56,4.56,0,0,0-3.277-2.429A9.2,9.2,0,0,0,552.108,269.785Zm1.813,2.191a2.5,2.5,0,0,1,1.092.552,2.8,2.8,0,0,1,.639,1.162v.139h-4.718l.041-.163A2.415,2.415,0,0,1,553.921,271.975Z" transform="translate(-516.606 -264.764)" fill="#fff"></path></g></g></g></svg>