<svg xmlns="http://www.w3.org/2000/svg" xmlns:xlink="http://www.w3.org/1999/xlink" id="Camada_2" viewBox="0 0 2409.97 912.18"><defs><style> .cls-1 { fill: url(#Gradiente_sem_nome_5); } .cls-2 { fill: #fff; } .cls-3 { fill: url(#Gradiente_sem_nome_5-5); } .cls-4 { fill: url(#Gradiente_sem_nome_5-7); } .cls-5 { fill: url(#Gradiente_sem_nome_5-6); } .cls-6 { fill: url(#Gradiente_sem_nome_5-8); } .cls-7 { fill: url(#Gradiente_sem_nome_5-4); } .cls-8 { fill: url(#Gradiente_sem_nome_5-3); } .cls-9 { fill: url(#Gradiente_sem_nome_5-2); } </style><linearGradient id="Gradiente_sem_nome_5" data-name="Gradiente sem nome 5" x1="189.92" y1="356.56" x2="240.2" y2="788.56" gradientUnits="userSpaceOnUse"><stop offset="0" stop-color="#e4d28d"></stop><stop offset="1" stop-color="#ab832d"></stop></linearGradient><linearGradient id="Gradiente_sem_nome_5-2" data-name="Gradiente sem nome 5" x1="631.34" y1="305.18" x2="681.63" y2="737.18" xlink:href="#Gradiente_sem_nome_5"></linearGradient><linearGradient id="Gradiente_sem_nome_5-3" data-name="Gradiente sem nome 5" x1="929.41" y1="270.48" x2="979.69" y2="702.48" xlink:href="#Gradiente_sem_nome_5"></linearGradient><linearGradient id="Gradiente_sem_nome_5-4" data-name="Gradiente sem nome 5" x1="1094.23" y1="251.29" x2="1144.52" y2="683.29" xlink:href="#Gradiente_sem_nome_5"></linearGradient><linearGradient id="Gradiente_sem_nome_5-5" data-name="Gradiente sem nome 5" x1="1372.49" y1="218.91" x2="1422.77" y2="650.91" xlink:href="#Gradiente_sem_nome_5"></linearGradient><linearGradient id="Gradiente_sem_nome_5-6" data-name="Gradiente sem nome 5" x1="1775.5" y1="171.99" x2="1825.79" y2="603.99" xlink:href="#Gradiente_sem_nome_5"></linearGradient><linearGradient id="Gradiente_sem_nome_5-7" data-name="Gradiente sem nome 5" x1="2102.53" y1="133.93" x2="2152.81" y2="565.93" xlink:href="#Gradiente_sem_nome_5"></linearGradient><linearGradient id="Gradiente_sem_nome_5-8" data-name="Gradiente sem nome 5" x1="2293.01" y1="111.75" x2="2343.3" y2="543.75" xlink:href="#Gradiente_sem_nome_5"></linearGradient></defs><g id="Camada_1-2" data-name="Camada_1"><g><g><polygon class="cls-2" points="238.57 57.09 202.22 1.96 182.79 1.96 182.79 108.72 209.59 108.72 209.59 53.96 229.62 84.63 247.39 84.63 267.41 54.15 267.41 108.72 294.22 108.72 294.22 1.96 274.79 1.96 238.57 57.09"></polygon><polygon class="cls-2" points="525.35 65.35 572.18 65.35 572.18 43.22 525.35 43.22 525.35 24.7 576.85 24.7 576.85 1.96 525.35 1.96 519.79 1.96 498.4 1.96 498.4 108.72 519.79 108.72 525.35 108.72 577.61 108.72 577.61 85.98 525.35 85.98 525.35 65.35"></polygon><polygon class="cls-2" points="844.73 62.53 796.85 1.96 778.03 1.96 778.03 108.72 804.98 108.72 804.98 49.52 851.66 108.72 871.69 108.72 871.69 1.96 844.73 1.96 844.73 62.53"></polygon><polygon class="cls-2" points="1069.09 25.15 1101.62 25.15 1101.62 108.72 1128.57 108.72 1128.57 25.15 1161.4 25.15 1161.4 1.96 1069.09 1.96 1069.09 25.15"></polygon><path class="cls-2" d="M1451.26,15.74c-5.12-5.07-11.14-8.96-18.07-11.67-6.93-2.71-14.51-4.07-22.74-4.07s-15.81,1.36-22.74,4.07c-6.93,2.71-12.95,6.6-18.07,11.67-5.12,5.07-9.11,10.94-11.97,17.62-2.86,6.68-4.29,13.93-4.29,21.76s1.45,15.13,4.37,21.91c2.91,6.78,6.95,12.67,12.12,17.69,5.17,5.02,11.22,8.94,18.15,11.74,6.92,2.81,14.5,4.22,22.74,4.22s15.63-1.38,22.51-4.14c6.88-2.76,12.87-6.67,17.99-11.75,5.12-5.07,9.11-10.97,11.97-17.69,2.86-6.72,4.29-14,4.29-21.83s-1.43-15.11-4.29-21.83c-2.86-6.72-6.85-12.62-11.97-17.69ZM1436.28,71.68c-2.36,4.72-5.77,8.38-10.24,10.99-4.47,2.61-9.66,3.91-15.58,3.91-4.42,0-8.46-.73-12.12-2.18-3.66-1.45-6.8-3.56-9.41-6.32-2.61-2.76-4.59-6.07-5.95-9.94-1.36-3.86-2.03-8.21-2.03-13.03,0-6.22,1.23-11.67,3.69-16.34,2.46-4.67,5.9-8.28,10.31-10.84,4.42-2.56,9.59-3.84,15.51-3.84,4.42,0,8.43.73,12.05,2.18,3.61,1.46,6.72,3.56,9.34,6.32,2.61,2.76,4.59,6.05,5.95,9.86,1.36,3.82,2.03,8.03,2.03,12.65,0,6.32-1.18,11.85-3.54,16.56Z"></path><path class="cls-2" d="M1730.43,61.51c5.62-2.66,10.01-6.35,13.18-11.07,3.16-4.72,4.74-10.29,4.74-16.71s-1.56-11.84-4.67-16.56c-3.11-4.72-7.4-8.43-12.87-11.14-5.47-2.71-11.77-4.07-18.9-4.07h-45.62v106.76h26.95v-43.22h1.58l29.29,43.22h31.17l-32.59-44.54c2.75-.65,5.34-1.53,7.75-2.67ZM1708,21.99c4.31,0,7.65,1.13,10.01,3.39,2.36,2.26,3.54,5.2,3.54,8.81s-1.18,6.68-3.54,8.88c-2.36,2.21-5.7,3.31-10.01,3.31h-14.76v-24.39h14.76Z"></path><rect class="cls-2" x="1949.22" y="1.96" width="26.95" height="106.76"></rect><path class="cls-2" d="M2252.79,108.72h28.31l-41.11-106.76h-26.05l-41.56,106.76h27.86l6.52-18.67h39.61l6.42,18.67ZM2214.21,68.66l12.49-35.79,12.31,35.79h-24.8Z"></path></g><g><path class="cls-1" d="M154.1,455.06c0-25.93,22.23-46.68,83.72-46.68,45.19,0,94.09,13.34,143.73,40.01l45.19-108.91c-41.49-24.45-95.57-39.27-150.4-43.71v-80.02h-88.9v81.5c-120.02,14.82-178.55,83.72-178.55,165.22,0,192.62,294.87,132.61,294.87,214.85,0,25.19-23.71,42.23-84.46,42.23s-125.21-20.74-171.15-51.12L0,776.6c42.97,29.63,113.35,51.12,187.44,56.3v79.28h88.9v-82.24c115.58-17.04,171.89-85.2,171.89-163.73,0-191.15-294.13-131.88-294.13-211.15Z"></path><path class="cls-9" d="M772.35,475.43c-28.4-15.56-60.87-23.34-97.42-23.34s-71.38,8.28-101.5,24.82c-30.13,16.56-53.71,39.03-70.76,67.42-17.04,28.41-25.56,61.12-25.56,98.17s8.77,69.15,26.3,97.79c17.53,28.66,41.86,51.13,72.98,67.42,31.12,16.3,67.17,24.45,108.17,24.45,31.6,0,60.13-5.31,85.57-15.93,25.43-10.61,47.53-26.3,66.31-47.04l-68.16-66.68c-10.87,12.35-23.22,21.37-37.05,27.04-13.83,5.69-29.39,8.52-46.67,8.52-18.78,0-34.58-3.58-47.42-10.74-12.85-7.16-22.72-17.9-29.63-32.23-1.73-3.59-3.25-7.39-4.55-11.41l254.22-1.18c1.97-9.88,3.45-18.64,4.45-26.3.98-7.66,1.48-14.94,1.48-21.86,0-35.56-8.03-67.05-24.08-94.46-16.05-27.42-38.28-48.9-66.68-64.46ZM602.89,600.65c1.12-3.6,2.41-7.06,3.88-10.38,6.41-14.57,15.67-25.68,27.78-33.34,12.1-7.65,26.05-11.49,41.86-11.49s28.9,3.34,39.27,10.01c10.37,6.66,18.26,16.67,23.71,30,1.81,4.45,3.34,9.26,4.59,14.42l-141.09.78Z"></path><polygon class="cls-8" points="904.07 374.31 904.07 825.55 1021.1 825.55 1021.1 285.45 1020.33 285.45 904.07 374.31"></polygon><polygon class="cls-7" points="1193.33 374.31 1193.33 825.55 1076.3 825.55 1076.3 285.45 1077.07 285.45 1193.33 374.31"></polygon><g><path class="cls-3" d="M1598.29,670.01h-302.15c5.49,75.54,63.18,125.67,142.15,125.67,43.95,0,83.09-15.79,110.56-47.38l27.47,31.59c-32.27,38.46-82.4,59.06-139.4,59.06-112.62,0-189.53-76.91-189.53-184.04s74.85-183.35,176.48-183.35,175.11,74.85,175.11,183.35c0,4.12-.69,9.61-.69,15.11ZM1296.14,633.61h256.14c-6.18-70.73-57.68-120.17-128.41-120.17s-121.55,49.44-127.73,120.17Z"></path><path class="cls-5" d="M1662.15,654.9c0-107.81,78.28-183.35,186.1-183.35,61.12,0,112.62,24.03,141.46,71.42l-36.4,24.72c-24.72-36.4-63.18-53.56-105.07-53.56-78.97,0-136.65,56.31-136.65,140.78s57.68,140.77,136.65,140.77c41.89,0,80.34-16.48,105.07-52.88l36.4,24.72c-28.84,46.7-80.34,71.42-141.46,71.42-107.81,0-186.1-76.22-186.1-184.04Z"></path><path class="cls-4" d="M2279.48,813.53c-19.23,17.17-48.07,25.41-76.22,25.41-67.98,0-105.75-38.46-105.75-105.07v-218.37h-64.55v-41.2h64.55v-78.97h48.76v78.97h109.87v41.2h-109.87v215.63c0,42.58,21.97,65.92,62.49,65.92,19.92,0,39.83-6.18,53.56-18.54l17.17,35.02Z"></path></g><circle class="cls-6" cx="2373.4" cy="802.36" r="36.57"></circle></g></g></g></svg>